<svg width="482" height="482" viewBox="0 0 482 482" fill="none" xmlns="http://www.w3.org/2000/svg">
<path d="M241 376H226V391H241V376Z" fill="#1D0330"/>
<path d="M211 91H196V106H211V91Z" fill="#1D0330"/>
<path d="M211 106H196V121H211V106Z" fill="#FFD300"/>
<path d="M211 121H196V136H211V121Z" fill="#FFD300"/>
<path d="M211 136H196V151H211V136Z" fill="#FFD300"/>
<path d="M211 151H196V166H211V151Z" fill="#FFD300"/>
<path d="M211 166H196V181H211V166Z" fill="#FFD300"/>
<path d="M211 181H196V196H211V181Z" fill="#FFD300"/>
<path d="M211 196H196V211H211V196Z" fill="#FFD300"/>
<path d="M211 211H196V226H211V211Z" fill="#FFD300"/>
<path d="M211 226H196V241H211V226Z" fill="#FFD300"/>
<path d="M211 241H196V256H211V241Z" fill="#FFD300"/>
<path d="M211 256H196V271H211V256Z" fill="#FFD300"/>
<path d="M211 361H196V376H211V361Z" fill="#FFD300"/>
<path d="M211 346H196V361H211V346Z" fill="#FFD300"/>
<path d="M301 376H286V391H301V376Z" fill="#1D0330"/>
<path d="M271 91H256V106H271V91Z" fill="#1D0330"/>
<path d="M271 106H256V121H271V106Z" fill="#FFD300"/>
<path d="M271 121H256V136H271V121Z" fill="#FFD300"/>
<path d="M271 136H256V151H271V136Z" fill="#FFD300"/>
<path d="M271 151H256V166H271V151Z" fill="#FFD300"/>
<path d="M271 166H256V181H271V166Z" fill="#FFD300"/>
<path d="M271 181H256V196H271V181Z" fill="#FFD300"/>
<path d="M271 196H256V211H271V196Z" fill="#FFD300"/>
<path d="M271 211H256V226H271V211Z" fill="#FFD300"/>
<path d="M271 226H256V241H271V226Z" fill="#FFD300"/>
<path d="M271 241H256V256H271V241Z" fill="#FFD300"/>
<path d="M271 256H256V271H271V256Z" fill="#FFD300"/>
<path d="M271 361H256V376H271V361Z" fill="#FFD300"/>
<path d="M271 346H256V361H271V346Z" fill="#FFD300"/>
<path d="M271 271H256V286H271V271Z" fill="#DFBA03"/>
<path d="M331 91H316V106H331V91Z" fill="#1D0330"/>
<path d="M331 106H316V121H331V106Z" fill="#DFBA03"/>
<path d="M331 121H316V136H331V121Z" fill="#DFBA03"/>
<path d="M331 136H316V151H331V136Z" fill="#DFBA03"/>
<path d="M331 151H316V166H331V151Z" fill="#DFBA03"/>
<path d="M331 166H316V181H331V166Z" fill="#DFBA03"/>
<path d="M331 181H316V196H331V181Z" fill="#DFBA03"/>
<path d="M331 196H316V211H331V196Z" fill="#DFBA03"/>
<path d="M331 211H316V226H331V211Z" fill="#DFBA03"/>
<path d="M226 376H211V391H226V376Z" fill="#1D0330"/>
<path d="M196 91H181V106H196V91Z" fill="#1D0330"/>
<path d="M196 106H181V121H196V106Z" fill="#FFD300"/>
<path d="M196 121H181V136H196V121Z" fill="#FFD300"/>
<path d="M196 136H181V151H196V136Z" fill="#FFD300"/>
<path d="M196 151H181V166H196V151Z" fill="#FFD300"/>
<path d="M196 166H181V181H196V166Z" fill="#FFD300"/>
<path d="M196 181H181V196H196V181Z" fill="#FFD300"/>
<path d="M196 196H181V211H196V196Z" fill="#FFD300"/>
<path d="M196 211H181V226H196V211Z" fill="#FFD300"/>
<path d="M196 226H181V241H196V226Z" fill="#FFD300"/>
<path d="M196 241H181V256H196V241Z" fill="#FFD300"/>
<path d="M286 376H271V391H286V376Z" fill="#1D0330"/>
<path d="M256 91H241V106H256V91Z" fill="#1D0330"/>
<path d="M256 106H241V121H256V106Z" fill="#FFD300"/>
<path d="M256 121H241V136H256V121Z" fill="#FFD300"/>
<path d="M256 136H241V151H256V136Z" fill="#FFD300"/>
<path d="M256 151H241V166H256V151Z" fill="#FFD300"/>
<path d="M256 166H241V181H256V166Z" fill="#FFD300"/>
<path d="M256 181H241V196H256V181Z" fill="#FFD300"/>
<path d="M256 196H241V211H256V196Z" fill="#FFD300"/>
<path d="M256 286H241V301H256V286Z" fill="#FFD300"/>
<path d="M256 211H241V226H256V211Z" fill="#FFD300"/>
<path d="M256 301H241V316H256V301Z" fill="#FFD300"/>
<path d="M256 226H241V241H256V226Z" fill="#FFD300"/>
<path d="M256 241H241V256H256V241Z" fill="#FFD300"/>
<path d="M256 256H241V271H256V256Z" fill="#FFD300"/>
<path d="M256 316H241V331H256V316Z" fill="#FFD300"/>
<path d="M256 361H241V376H256V361Z" fill="#FFD300"/>
<path d="M256 346H241V361H256V346Z" fill="#FFD300"/>
<path d="M256 271H241V286H256V271Z" fill="#FFD300"/>
<path d="M256 331H241V346H256V331Z" fill="#FFD300"/>
<path d="M316 91H301V106H316V91Z" fill="#1D0330"/>
<path d="M316 106H301V121H316V106Z" fill="#FFD300"/>
<path d="M316 121H301V136H316V121Z" fill="#FFD300"/>
<path d="M316 136H301V151H316V136Z" fill="#FFD300"/>
<path d="M316 151H301V166H316V151Z" fill="#FFD300"/>
<path d="M316 166H301V181H316V166Z" fill="#FFD300"/>
<path d="M316 181H301V196H316V181Z" fill="#FFD300"/>
<path d="M316 196H301V211H316V196Z" fill="#FFD300"/>
<path d="M316 211H301V226H316V211Z" fill="#FFD300"/>
<path d="M316 226H301V241H316V226Z" fill="#DFBA03"/>
<path d="M211 376H196V391H211V376Z" fill="#1D0330"/>
<path d="M181 91H166V106H181V91Z" fill="#1D0330"/>
<path d="M181 106H166V121H181V106Z" fill="#FFD300"/>
<path d="M181 121H166V136H181V121Z" fill="#FFF5C3"/>
<path d="M181 136H166V151H181V136Z" fill="#FFF5C3"/>
<path d="M181 151H166V166H181V151Z" fill="#FFF5C3"/>
<path d="M181 166H166V181H181V166Z" fill="#FFF5C3"/>
<path d="M181 181H166V196H181V181Z" fill="#FFF5C3"/>
<path d="M181 196H166V211H181V196Z" fill="#FFD300"/>
<path d="M181 211H166V226H181V211Z" fill="#FFD300"/>
<path d="M181 226H166V241H181V226Z" fill="#FFD300"/>
<path d="M271 376H256V391H271V376Z" fill="#1D0330"/>
<path d="M241 91H226V106H241V91Z" fill="#1D0330"/>
<path d="M241 106H226V121H241V106Z" fill="#FFD300"/>
<path d="M241 121H226V136H241V121Z" fill="#FFD300"/>
<path d="M241 136H226V151H241V136Z" fill="#FFD300"/>
<path d="M241 151H226V166H241V151Z" fill="#FFD300"/>
<path d="M241 166H226V181H241V166Z" fill="#FFD300"/>
<path d="M241 181H226V196H241V181Z" fill="#FFD300"/>
<path d="M241 196H226V211H241V196Z" fill="#FFD300"/>
<path d="M241 286H226V301H241V286Z" fill="#FFD300"/>
<path d="M241 211H226V226H241V211Z" fill="#FFD300"/>
<path d="M241 301H226V316H241V301Z" fill="#FFD300"/>
<path d="M241 226H226V241H241V226Z" fill="#FFD300"/>
<path d="M241 241H226V256H241V241Z" fill="#FFD300"/>
<path d="M241 256H226V271H241V256Z" fill="#FFD300"/>
<path d="M241 316H226V331H241V316Z" fill="#FFD300"/>
<path d="M241 361H226V376H241V361Z" fill="#FFD300"/>
<path d="M241 346H226V361H241V346Z" fill="#FFD300"/>
<path d="M241 271H226V286H241V271Z" fill="#FFD300"/>
<path d="M241 331H226V346H241V331Z" fill="#FFD300"/>
<path d="M301 91H286V106H301V91Z" fill="#1D0330"/>
<path d="M301 106H286V121H301V106Z" fill="#FFD300"/>
<path d="M301 121H286V136H301V121Z" fill="#FFD300"/>
<path d="M301 136H286V151H301V136Z" fill="#FFD300"/>
<path d="M301 151H286V166H301V151Z" fill="#FFD300"/>
<path d="M301 166H286V181H301V166Z" fill="#FFD300"/>
<path d="M301 181H286V196H301V181Z" fill="#FFD300"/>
<path d="M301 196H286V211H301V196Z" fill="#FFD300"/>
<path d="M301 211H286V226H301V211Z" fill="#FFD300"/>
<path d="M301 226H286V241H301V226Z" fill="#FFD300"/>
<path d="M301 241H286V256H301V241Z" fill="#DFBA03"/>
<path d="M196 376H181V391H196V376Z" fill="#1D0330"/>
<path d="M166 91H151V106H166V91Z" fill="#1D0330"/>
<path d="M166 106H151V121H166V106Z" fill="#FFD300"/>
<path d="M166 121H151V136H166V121Z" fill="#FFD300"/>
<path d="M166 136H151V151H166V136Z" fill="#FFD300"/>
<path d="M166 151H151V166H166V151Z" fill="#FFD300"/>
<path d="M166 166H151V181H166V166Z" fill="#FFD300"/>
<path d="M166 181H151V196H166V181Z" fill="#FFD300"/>
<path d="M166 196H151V211H166V196Z" fill="#FFD300"/>
<path d="M166 211H151V226H166V211Z" fill="#FFD300"/>
<path d="M181 361H166V376H181V361Z" fill="#1D0330"/>
<path d="M316 361H301V376H316V361Z" fill="#1D0330"/>
<path d="M181 346H166V361H181V346Z" fill="#1D0330"/>
<path d="M196 331H181V346H196V331Z" fill="#1D0330"/>
<path d="M181 376H166V391H181V376Z" fill="#1D0330"/>
<path d="M301 331H286V346H301V331Z" fill="#1D0330"/>
<path d="M316 376H301V391H316V376Z" fill="#1D0330"/>
<path d="M316 346H301V361H316V346Z" fill="#1D0330"/>
<path d="M286 331H271V346H286V331Z" fill="#1D0330"/>
<path d="M226 331H211V346H226V331Z" fill="#1D0330"/>
<path d="M271 331H256V346H271V331Z" fill="#1D0330"/>
<path d="M271 316H256V331H271V316Z" fill="#1D0330"/>
<path d="M226 316H211V331H226V316Z" fill="#1D0330"/>
<path d="M271 301H256V316H271V301Z" fill="#1D0330"/>
<path d="M226 301H211V316H226V301Z" fill="#1D0330"/>
<path d="M271 286H256V301H271V286Z" fill="#1D0330"/>
<path d="M286 271H271V286H286V271Z" fill="#1D0330"/>
<path d="M286 286H271V301H286V286Z" fill="#1D0330"/>
<path d="M301 271H286V286H301V271Z" fill="#1D0330"/>
<path d="M301 256H286V271H301V256Z" fill="#1D0330"/>
<path d="M316 256H301V271H316V256Z" fill="#1D0330"/>
<path d="M316 241H301V256H316V241Z" fill="#1D0330"/>
<path d="M331 241H316V256H331V241Z" fill="#1D0330"/>
<path d="M331 226H316V241H331V226Z" fill="#1D0330"/>
<path d="M346 226H331V241H346V226Z" fill="#1D0330"/>
<path d="M346 211H331V226H346V211Z" fill="#1D0330"/>
<path d="M346 196H331V211H346V196Z" fill="#1D0330"/>
<path d="M346 181H331V196H346V181Z" fill="#1D0330"/>
<path d="M346 166H331V181H346V166Z" fill="#1D0330"/>
<path d="M346 151H331V166H346V151Z" fill="#1D0330"/>
<path d="M346 136H331V151H346V136Z" fill="#1D0330"/>
<path d="M361 136H346V151H361V136Z" fill="#1D0330"/>
<path d="M376 136H361V151H376V136Z" fill="#1D0330"/>
<path d="M391 136H376V151H391V136Z" fill="#1D0330"/>
<path d="M391 151H376V166H391V151Z" fill="#1D0330"/>
<path d="M391 166H376V181H391V166Z" fill="#1D0330"/>
<path d="M391 181H376V196H391V181Z" fill="#1D0330"/>
<path d="M376 181H361V196H376V181Z" fill="#1D0330"/>
<path d="M376 196H361V211H376V196Z" fill="#1D0330"/>
<path d="M361 196H346V211H361V196Z" fill="#1D0330"/>
<path d="M121 136H136V151H121V136Z" fill="#1D0330"/>
<path d="M106 136H121V151H106V136Z" fill="#1D0330"/>
<path d="M91 136H106V151H91V136Z" fill="#1D0330"/>
<path d="M91 151H106V166H91V151Z" fill="#1D0330"/>
<path d="M91 166H106V181H91V166Z" fill="#1D0330"/>
<path d="M91 181H106V196H91V181Z" fill="#1D0330"/>
<path d="M106 181H121V196H106V181Z" fill="#1D0330"/>
<path d="M106 196H121V211H106V196Z" fill="#1D0330"/>
<path d="M121 196H136V211H121V196Z" fill="#1D0330"/>
<path d="M346 121H331V136H346V121Z" fill="#1D0330"/>
<path d="M346 106H331V121H346V106Z" fill="#1D0330"/>
<path d="M346 91H331V106H346V91Z" fill="#1D0330"/>
<path d="M196 271H211V286H196V271Z" fill="#1D0330"/>
<path d="M196 286H211V301H196V286Z" fill="#1D0330"/>
<path d="M181 271H196V286H181V271Z" fill="#1D0330"/>
<path d="M181 256H196V271H181V256Z" fill="#1D0330"/>
<path d="M166 256H181V271H166V256Z" fill="#1D0330"/>
<path d="M166 241H181V256H166V241Z" fill="#1D0330"/>
<path d="M151 241H166V256H151V241Z" fill="#1D0330"/>
<path d="M151 226H166V241H151V226Z" fill="#1D0330"/>
<path d="M136 226H151V241H136V226Z" fill="#1D0330"/>
<path d="M136 211H151V226H136V211Z" fill="#1D0330"/>
<path d="M136 196H151V211H136V196Z" fill="#1D0330"/>
<path d="M136 181H151V196H136V181Z" fill="#1D0330"/>
<path d="M136 166H151V181H136V166Z" fill="#1D0330"/>
<path d="M136 151H151V166H136V151Z" fill="#1D0330"/>
<path d="M136 136H151V151H136V136Z" fill="#1D0330"/>
<path d="M136 121H151V136H136V121Z" fill="#1D0330"/>
<path d="M136 106H151V121H136V106Z" fill="#1D0330"/>
<path d="M136 91H151V106H136V91Z" fill="#1D0330"/>
<path d="M226 286H211V301H226V286Z" fill="#1D0330"/>
<path d="M211 331H196V346H211V331Z" fill="#1D0330"/>
<path d="M256 376H241V391H256V376Z" fill="#1D0330"/>
<path d="M226 91H211V106H226V91Z" fill="#1D0330"/>
<path d="M226 106H211V121H226V106Z" fill="#FFD300"/>
<path d="M226 121H211V136H226V121Z" fill="#FFD300"/>
<path d="M226 136H211V151H226V136Z" fill="#FFD300"/>
<path d="M226 151H211V166H226V151Z" fill="#FFD300"/>
<path d="M226 166H211V181H226V166Z" fill="#FFD300"/>
<path d="M226 181H211V196H226V181Z" fill="#FFD300"/>
<path d="M226 196H211V211H226V196Z" fill="#FFD300"/>
<path d="M226 211H211V226H226V211Z" fill="#FFD300"/>
<path d="M226 226H211V241H226V226Z" fill="#FFD300"/>
<path d="M226 241H211V256H226V241Z" fill="#FFD300"/>
<path d="M226 256H211V271H226V256Z" fill="#FFD300"/>
<path d="M226 361H211V376H226V361Z" fill="#FFD300"/>
<path d="M226 346H211V361H226V346Z" fill="#FFD300"/>
<path d="M226 271H211V286H226V271Z" fill="#FFD300"/>
<path d="M286 91H271V106H286V91Z" fill="#1D0330"/>
<path d="M286 106H271V121H286V106Z" fill="#FFD300"/>
<path d="M286 121H271V136H286V121Z" fill="#FFD300"/>
<path d="M286 136H271V151H286V136Z" fill="#FFD300"/>
<path d="M286 151H271V166H286V151Z" fill="#FFD300"/>
<path d="M286 166H271V181H286V166Z" fill="#FFD300"/>
<path d="M286 181H271V196H286V181Z" fill="#FFD300"/>
<path d="M286 196H271V211H286V196Z" fill="#FFD300"/>
<path d="M286 211H271V226H286V211Z" fill="#FFD300"/>
<path d="M286 226H271V241H286V226Z" fill="#FFD300"/>
<path d="M286 241H271V256H286V241Z" fill="#FFD300"/>
<path d="M286 256H271V271H286V256Z" fill="#DFBA03"/>
<path d="M286 361H271V376H286V361Z" fill="#FFD300"/>
<path d="M301 361H286V376H301V361Z" fill="#FFD300"/>
<path d="M196 361H181V376H196V361Z" fill="#FFD300"/>
<path d="M286 346H271V361H286V346Z" fill="#FFD300"/>
<path d="M301 346H286V361H301V346Z" fill="#FFD300"/>
<path d="M196 346H181V361H196V346Z" fill="#FFD300"/>
</svg>
