<svg width="482" height="482" viewBox="0 0 482 482" fill="none" xmlns="http://www.w3.org/2000/svg">
<g style="mix-blend-mode:multiply">
<path d="M165.772 391H150.73V406H165.772V391Z" fill="#1D0330"/>
<path d="M165.772 406H150.73V421H165.772V406Z" fill="#1D0330"/>
<path d="M165.772 61H150.73V76.0001H165.772V61Z" fill="#1D0330"/>
<path d="M165.772 76H150.73V91.0001H165.772V76Z" fill="#1D0330"/>
<path d="M180.813 376H165.771V391H180.813V376Z" fill="#1D0330"/>
<path d="M180.813 181H165.771V196H180.813V181Z" fill="#1D0330"/>
<path d="M331.229 376H316.188V391H331.229V376Z" fill="#1D0330"/>
<path d="M331.229 181H316.188V196H331.229V181Z" fill="#1D0330"/>
<path d="M180.813 361H165.771V376H180.813V361Z" fill="#1D0330"/>
<path d="M180.813 166H165.771V181H180.813V166Z" fill="#1D0330"/>
<path d="M331.229 361H316.188V376H331.229V361Z" fill="#1D0330"/>
<path d="M331.229 166H316.188V181H331.229V166Z" fill="#1D0330"/>
<path d="M180.813 346H165.771V361H180.813V346Z" fill="#1D0330"/>
<path d="M180.813 151H165.771V166H180.813V151Z" fill="#1D0330"/>
<path d="M331.229 346H316.188V361H331.229V346Z" fill="#1D0330"/>
<path d="M331.229 151H316.188V166H331.229V151Z" fill="#1D0330"/>
<path d="M180.813 331H165.771V346H180.813V331Z" fill="#1D0330"/>
<path d="M180.813 136H165.771V151H180.813V136Z" fill="#1D0330"/>
<path d="M331.229 331H316.188V346H331.229V331Z" fill="#1D0330"/>
<path d="M331.229 136H316.188V151H331.229V136Z" fill="#1D0330"/>
<path d="M180.813 316H165.771V331H180.813V316Z" fill="#1D0330"/>
<path d="M180.813 121H165.771V136H180.813V121Z" fill="#1D0330"/>
<path d="M331.229 316H316.188V331H331.229V316Z" fill="#1D0330"/>
<path d="M331.229 121H316.188V136H331.229V121Z" fill="#1D0330"/>
<path d="M180.813 301H165.771V316H180.813V301Z" fill="#1D0330"/>
<path d="M180.813 106H165.771V121H180.813V106Z" fill="#1D0330"/>
<path d="M331.229 301H316.188V316H331.229V301Z" fill="#1D0330"/>
<path d="M331.229 106H316.188V121H331.229V106Z" fill="#1D0330"/>
<path d="M180.813 286H165.771V301H180.813V286Z" fill="#1D0330"/>
<path d="M180.813 91H165.771V106H180.813V91Z" fill="#1D0330"/>
<path d="M331.229 286H316.188V301H331.229V286Z" fill="#1D0330"/>
<path d="M331.229 91H316.188V106H331.229V91Z" fill="#1D0330"/>
<path d="M195.855 271H180.813V286H195.855V271Z" fill="#1D0330"/>
<path d="M195.855 196H180.813V211H195.855V196Z" fill="#1D0330"/>
<path d="M210.896 255.999H195.854V270.999H210.896V255.999Z" fill="#1D0330"/>
<path d="M225.938 241H210.896V256H225.938V241Z" fill="#1D0330"/>
<path d="M225.938 226H210.896V241H225.938V226Z" fill="#1D0330"/>
<path d="M210.896 211H195.854V226H210.896V211Z" fill="#1D0330"/>
<path d="M225.938 106H210.896V121H225.938V106Z" fill="#FF8000"/>
<path d="M316.187 271H301.146V286H316.187V271Z" fill="#1D0330"/>
<path d="M316.187 196H301.146V211H316.187V196Z" fill="#1D0330"/>
<path d="M301.146 255.999H286.104V270.999H301.146V255.999Z" fill="#1D0330"/>
<path d="M286.104 241H271.062V256H286.104V241Z" fill="#1D0330"/>
<path d="M286.104 226H271.062V241H286.104V226Z" fill="#1D0330"/>
<path d="M301.146 211H286.104V226H301.146V211Z" fill="#1D0330"/>
<path d="M286.104 106H271.062V121H286.104V106Z" fill="#FF8000"/>
<path d="M256.021 106H240.979V121H256.021V106Z" fill="#FF8000"/>
<path d="M301.146 376H286.104V391H301.146V376Z" fill="#F27300"/>
<path d="M210.896 376H195.854V391H210.896V376Z" fill="#F27300"/>
<path d="M240.98 376H225.938V391H240.98V376Z" fill="#F27300"/>
<path d="M225.938 361H210.896V376H225.938V361Z" fill="#F27300"/>
<path d="M256.021 361H240.979V376H256.021V361Z" fill="#F27300"/>
<path d="M240.98 361H225.938V376H240.98V361Z" fill="#F27300"/>
<path d="M286.104 361H271.062V376H286.104V361Z" fill="#F27300"/>
<path d="M271.063 346H256.021V361H271.063V346Z" fill="#F27300"/>
<path d="M240.98 346H225.938V361H240.98V346Z" fill="#F27300"/>
<path d="M256.021 331H240.979V346H256.021V331Z" fill="#F27300"/>
<path d="M256.021 301H240.979V316H256.021V301Z" fill="#E8FFFB"/>
<path d="M256.021 241H240.979V256H256.021V241Z" fill="#F27300"/>
<path d="M271.063 376H256.021V391H271.063V376Z" fill="#F27300"/>
<path d="M286.104 391H271.062V406H286.104V391Z" fill="#1D0330"/>
<path d="M286.104 406H271.062V421H286.104V406Z" fill="#1D0330"/>
<path d="M286.104 61H271.062V76.0001H286.104V61Z" fill="#1D0330"/>
<path d="M271.063 391H256.021V406H271.063V391Z" fill="#1D0330"/>
<path d="M271.063 406H256.021V421H271.063V406Z" fill="#1D0330"/>
<path d="M271.063 61H256.021V76.0001H271.063V61Z" fill="#1D0330"/>
<path d="M256.021 391H240.979V406H256.021V391Z" fill="#1D0330"/>
<path d="M256.021 406H240.979V421H256.021V406Z" fill="#1D0330"/>
<path d="M256.021 61H240.979V76.0001H256.021V61Z" fill="#1D0330"/>
<path d="M256.021 136H240.979V151H256.021V136Z" fill="#FF8000"/>
<path d="M271.063 121H256.021V136H271.063V121Z" fill="#FF8000"/>
<path d="M240.98 121H225.938V136H240.98V121Z" fill="#FF8000"/>
<path d="M271.063 76H256.021V91.0001H271.063V76Z" fill="#1D0330"/>
<path d="M271.063 91H256.021V106H271.063V91Z" fill="#E8FFFB"/>
<path d="M271.063 106H256.021V121H271.063V106Z" fill="#F27300"/>
<path d="M271.063 151H256.021V166H271.063V151Z" fill="#E8FFFB"/>
<path d="M271.063 166H256.021V181H271.063V166Z" fill="#E8FFFB"/>
<path d="M271.063 181H256.021V196H271.063V181Z" fill="#E8FFFB"/>
<path d="M271.063 196H256.021V211H271.063V196Z" fill="#E8FFFB"/>
<path d="M271.063 211H256.021V226H271.063V211Z" fill="#E8FFFB"/>
<path d="M271.063 226H256.021V241H271.063V226Z" fill="#E8FFFB"/>
<path d="M271.063 255.999H256.021V270.999H271.063V255.999Z" fill="#E8FFFB"/>
<path d="M271.063 271H256.021V286H271.063V271Z" fill="#E8FFFB"/>
<path d="M271.063 286H256.021V301H271.063V286Z" fill="#E8FFFB"/>
<path d="M271.063 316H256.021V331H271.063V316Z" fill="#E8FFFB"/>
<path d="M256.021 76H240.979V91.0001H256.021V76Z" fill="#1D0330"/>
<path d="M256.021 91H240.979V106H256.021V91Z" fill="#E8FFFB"/>
<path d="M256.021 151H240.979V166H256.021V151Z" fill="#E8FFFB"/>
<path d="M256.021 166H240.979V181H256.021V166Z" fill="#E8FFFB"/>
<path d="M256.021 181H240.979V196H256.021V181Z" fill="#E8FFFB"/>
<path d="M256.021 196H240.979V211H256.021V196Z" fill="#E8FFFB"/>
<path d="M256.021 211H240.979V226H256.021V211Z" fill="#E8FFFB"/>
<path d="M256.021 226H240.979V241H256.021V226Z" fill="#E8FFFB"/>
<path d="M256.021 255.999H240.979V270.999H256.021V255.999Z" fill="#E8FFFB"/>
<path d="M256.021 271H240.979V286H256.021V271Z" fill="#E8FFFB"/>
<path d="M256.021 286H240.979V301H256.021V286Z" fill="#F27300"/>
<path d="M256.021 316H240.979V331H256.021V316Z" fill="#E8FFFB"/>
<path d="M240.98 391H225.938V406H240.98V391Z" fill="#1D0330"/>
<path d="M240.98 406H225.938V421H240.98V406Z" fill="#1D0330"/>
<path d="M240.98 61H225.938V76.0001H240.98V61Z" fill="#1D0330"/>
<path d="M240.98 76H225.938V91.0001H240.98V76Z" fill="#1D0330"/>
<path d="M240.98 91H225.938V106H240.98V91Z" fill="#E8FFFB"/>
<path d="M240.98 106H225.938V121H240.98V106Z" fill="#F27300"/>
<path d="M256.021 121H240.979V136H256.021V121Z" fill="#F27300"/>
<path d="M240.98 136H225.938V151H240.98V136Z" fill="#E8FFFB"/>
<path d="M271.063 136H256.021V151H271.063V136Z" fill="#E8FFFB"/>
<path d="M240.98 151H225.938V166H240.98V151Z" fill="#E8FFFB"/>
<path d="M240.98 166H225.938V181H240.98V166Z" fill="#E8FFFB"/>
<path d="M240.98 181H225.938V196H240.98V181Z" fill="#E8FFFB"/>
<path d="M240.98 196H225.938V211H240.98V196Z" fill="#E8FFFB"/>
<path d="M240.98 211H225.938V226H240.98V211Z" fill="#E8FFFB"/>
<path d="M240.98 226H225.938V241H240.98V226Z" fill="#E8FFFB"/>
<path d="M240.98 255.999H225.938V270.999H240.98V255.999Z" fill="#E8FFFB"/>
<path d="M225.938 255.999H210.896V270.999H225.938V255.999Z" fill="#E8FFFB"/>
<path d="M286.104 255.999H271.062V270.999H286.104V255.999Z" fill="#E8FFFB"/>
<path d="M271.063 241H256.021V256H271.063V241Z" fill="#E8FFFB"/>
<path d="M240.98 241H225.938V256H240.98V241Z" fill="#E8FFFB"/>
<path d="M256.021 346H240.979V361H256.021V346Z" fill="#FF8000"/>
<path d="M240.98 361H225.938V376H240.98V361Z" fill="#FF8000"/>
<path d="M271.063 361H256.021V376H271.063V361Z" fill="#FF8000"/>
<path d="M286.104 376H271.062V391H286.104V376Z" fill="#FF8000"/>
<path d="M256.021 376H240.979V391H256.021V376Z" fill="#FF8000"/>
<path d="M225.938 376H210.896V391H225.938V376Z" fill="#FF8000"/>
<path d="M240.98 271H225.938V286H240.98V271Z" fill="#E8FFFB"/>
<path d="M240.98 286H225.938V301H240.98V286Z" fill="#E8FFFB"/>
<path d="M240.98 301H225.938V316H240.98V301Z" fill="#E8FFFB"/>
<path d="M316.187 301H301.146V316H316.187V301Z" fill="#E8FFFB"/>
<path d="M316.187 331H301.146V346H316.187V331Z" fill="#E8FFFB"/>
<path d="M240.98 331H225.938V346H240.98V331Z" fill="#E8FFFB"/>
<path d="M240.98 316H225.938V331H240.98V316Z" fill="#E8FFFB"/>
<path d="M286.104 76H271.062V91.0001H286.104V76Z" fill="#1D0330"/>
<path d="M286.104 91H271.062V106H286.104V91Z" fill="#E8FFFB"/>
<path d="M286.104 151H271.062V166H286.104V151Z" fill="#E8FFFB"/>
<path d="M286.104 166H271.062V181H286.104V166Z" fill="#E8FFFB"/>
<path d="M286.104 181H271.062V196H286.104V181Z" fill="#E8FFFB"/>
<path d="M286.104 196H271.062V211H286.104V196Z" fill="#E8FFFB"/>
<path d="M286.104 211H271.062V226H286.104V211Z" fill="#E8FFFB"/>
<path d="M286.104 271H271.062V286H286.104V271Z" fill="#E8FFFB"/>
<path d="M286.104 286H271.062V301H286.104V286Z" fill="#E8FFFB"/>
<path d="M286.104 316H271.062V331H286.104V316Z" fill="#E8FFFB"/>
<path d="M180.813 391H165.771V406H180.813V391Z" fill="#1D0330"/>
<path d="M180.813 406H165.771V421H180.813V406Z" fill="#1D0330"/>
<path d="M180.813 61H165.771V76.0001H180.813V61Z" fill="#1D0330"/>
<path d="M180.813 76H165.771V91.0001H180.813V76Z" fill="#1D0330"/>
<path d="M301.146 391H286.104V406H301.146V391Z" fill="#1D0330"/>
<path d="M301.146 406H286.104V421H301.146V406Z" fill="#1D0330"/>
<path d="M301.146 61H286.104V76.0001H301.146V61Z" fill="#1D0330"/>
<path d="M301.146 76H286.104V91.0001H301.146V76Z" fill="#1D0330"/>
<path d="M301.146 91H286.104V106H301.146V91Z" fill="#E8FFFB"/>
<path d="M301.146 151H286.104V166H301.146V151Z" fill="#E8FFFB"/>
<path d="M301.146 166H286.104V181H301.146V166Z" fill="#E8FFFB"/>
<path d="M301.146 181H286.104V196H301.146V181Z" fill="#E8FFFB"/>
<path d="M301.146 196H286.104V211H301.146V196Z" fill="#E8FFFB"/>
<path d="M301.146 271H286.104V286H301.146V271Z" fill="#E8FFFB"/>
<path d="M301.146 286H286.104V301H301.146V286Z" fill="#E8FFFB"/>
<path d="M301.146 316H286.104V331H301.146V316Z" fill="#E8FFFB"/>
<path d="M195.855 391H180.813V406H195.855V391Z" fill="#1D0330"/>
<path d="M195.855 406H180.813V421H195.855V406Z" fill="#1D0330"/>
<path d="M195.855 61H180.813V76.0001H195.855V61Z" fill="#1D0330"/>
<path d="M195.855 76H180.813V91.0001H195.855V76Z" fill="#1D0330"/>
<path d="M195.855 91H180.813V106H195.855V91Z" fill="#E8FFFB"/>
<path d="M195.855 151H180.813V166H195.855V151Z" fill="#E8FFFB"/>
<path d="M195.855 166H180.813V181H195.855V166Z" fill="#E8FFFB"/>
<path d="M195.855 181H180.813V196H195.855V181Z" fill="#E8FFFB"/>
<path d="M195.855 286H180.813V301H195.855V286Z" fill="#E8FFFB"/>
<path d="M195.855 301H180.813V316H195.855V301Z" fill="#E8FFFB"/>
<path d="M271.063 301H256.021V316H271.063V301Z" fill="#E8FFFB"/>
<path d="M271.063 331H256.021V346H271.063V331Z" fill="#E8FFFB"/>
<path d="M195.855 331H180.813V346H195.855V331Z" fill="#E8FFFB"/>
<path d="M195.855 346H180.813V361H195.855V346Z" fill="#E8FFFB"/>
<path d="M195.855 361H180.813V376H195.855V361Z" fill="#E8FFFB"/>
<path d="M195.855 376H180.813V391H195.855V376Z" fill="#E8FFFB"/>
<path d="M316.187 376H301.146V391H316.187V376Z" fill="#E8FFFB"/>
<path d="M301.146 361H286.104V376H301.146V361Z" fill="#E8FFFB"/>
<path d="M286.104 346H271.062V361H286.104V346Z" fill="#E8FFFB"/>
<path d="M195.855 316H180.813V331H195.855V316Z" fill="#E8FFFB"/>
<path d="M316.187 391H301.146V406H316.187V391Z" fill="#1D0330"/>
<path d="M316.187 406H301.146V421H316.187V406Z" fill="#1D0330"/>
<path d="M316.187 61H301.146V76.0001H316.187V61Z" fill="#1D0330"/>
<path d="M316.187 76H301.146V91.0001H316.187V76Z" fill="#1D0330"/>
<path d="M316.187 91H301.146V106H316.187V91Z" fill="#E8FFFB"/>
<path d="M316.187 151H301.146V166H316.187V151Z" fill="#E8FFFB"/>
<path d="M316.187 106H301.146V121H316.187V106Z" fill="#E8FFFB"/>
<path d="M301.146 106H286.104V121H301.146V106Z" fill="#E8FFFB"/>
<path d="M210.896 106H195.854V121H210.896V106Z" fill="#E8FFFB"/>
<path d="M195.855 106H180.813V121H195.855V106Z" fill="#E8FFFB"/>
<path d="M316.187 166H301.146V181H316.187V166Z" fill="#E8FFFB"/>
<path d="M316.187 121H301.146V136H316.187V121Z" fill="#E8FFFB"/>
<path d="M301.146 121H286.104V136H301.146V121Z" fill="#E8FFFB"/>
<path d="M210.896 121H195.854V136H210.896V121Z" fill="#E8FFFB"/>
<path d="M225.938 121H210.896V136H225.938V121Z" fill="#E8FFFB"/>
<path d="M286.104 121H271.062V136H286.104V121Z" fill="#E8FFFB"/>
<path d="M195.855 121H180.813V136H195.855V121Z" fill="#E8FFFB"/>
<path d="M316.187 181H301.146V196H316.187V181Z" fill="#E8FFFB"/>
<path d="M316.187 136H301.146V151H316.187V136Z" fill="#E8FFFB"/>
<path d="M301.146 136H286.104V151H301.146V136Z" fill="#E8FFFB"/>
<path d="M210.896 136H195.854V151H210.896V136Z" fill="#E8FFFB"/>
<path d="M225.938 136H210.896V151H225.938V136Z" fill="#E8FFFB"/>
<path d="M286.104 136H271.062V151H286.104V136Z" fill="#E8FFFB"/>
<path d="M195.855 136H180.813V151H195.855V136Z" fill="#E8FFFB"/>
<path d="M316.187 286H301.146V301H316.187V286Z" fill="#E8FFFB"/>
<path d="M316.187 316H301.146V331H316.187V316Z" fill="#E8FFFB"/>
<path d="M210.896 391H195.854V406H210.896V391Z" fill="#1D0330"/>
<path d="M210.896 406H195.854V421H210.896V406Z" fill="#1D0330"/>
<path d="M210.896 61H195.854V76.0001H210.896V61Z" fill="#1D0330"/>
<path d="M210.896 76H195.854V91.0001H210.896V76Z" fill="#1D0330"/>
<path d="M210.896 91H195.854V106H210.896V91Z" fill="#E8FFFB"/>
<path d="M210.896 151H195.854V166H210.896V151Z" fill="#E8FFFB"/>
<path d="M210.896 166H195.854V181H210.896V166Z" fill="#E8FFFB"/>
<path d="M210.896 181H195.854V196H210.896V181Z" fill="#E8FFFB"/>
<path d="M210.896 196H195.854V211H210.896V196Z" fill="#E8FFFB"/>
<path d="M210.896 271H195.854V286H210.896V271Z" fill="#E8FFFB"/>
<path d="M210.896 286H195.854V301H210.896V286Z" fill="#E8FFFB"/>
<path d="M210.896 301H195.854V316H210.896V301Z" fill="#E8FFFB"/>
<path d="M286.104 301H271.062V316H286.104V301Z" fill="#E8FFFB"/>
<path d="M286.104 331H271.062V346H286.104V331Z" fill="#E8FFFB"/>
<path d="M210.896 331H195.854V346H210.896V331Z" fill="#E8FFFB"/>
<path d="M210.896 346H195.854V361H210.896V346Z" fill="#E8FFFB"/>
<path d="M210.896 361H195.854V376H210.896V361Z" fill="#E8FFFB"/>
<path d="M316.187 361H301.146V376H316.187V361Z" fill="#E8FFFB"/>
<path d="M301.146 346H286.104V361H301.146V346Z" fill="#E8FFFB"/>
<path d="M210.896 316H195.854V331H210.896V316Z" fill="#E8FFFB"/>
<path d="M331.229 391H316.188V406H331.229V391Z" fill="#1D0330"/>
<path d="M331.229 406H316.188V421H331.229V406Z" fill="#1D0330"/>
<path d="M331.229 61H316.188V76.0001H331.229V61Z" fill="#1D0330"/>
<path d="M331.229 76H316.188V91.0001H331.229V76Z" fill="#1D0330"/>
<path d="M225.938 391H210.896V406H225.938V391Z" fill="#1D0330"/>
<path d="M225.938 406H210.896V421H225.938V406Z" fill="#1D0330"/>
<path d="M225.938 61H210.896V76.0001H225.938V61Z" fill="#1D0330"/>
<path d="M225.938 76H210.896V91.0001H225.938V76Z" fill="#1D0330"/>
<path d="M225.938 91H210.896V106H225.938V91Z" fill="#E8FFFB"/>
<path d="M225.938 151H210.896V166H225.938V151Z" fill="#E8FFFB"/>
<path d="M225.938 166H210.896V181H225.938V166Z" fill="#E8FFFB"/>
<path d="M225.938 181H210.896V196H225.938V181Z" fill="#E8FFFB"/>
<path d="M225.938 196H210.896V211H225.938V196Z" fill="#E8FFFB"/>
<path d="M225.938 211H210.896V226H225.938V211Z" fill="#E8FFFB"/>
<path d="M225.938 271H210.896V286H225.938V271Z" fill="#E8FFFB"/>
<path d="M225.938 286H210.896V301H225.938V286Z" fill="#E8FFFB"/>
<path d="M225.938 301H210.896V316H225.938V301Z" fill="#E8FFFB"/>
<path d="M301.146 301H286.104V316H301.146V301Z" fill="#E8FFFB"/>
<path d="M301.146 331H286.104V346H301.146V331Z" fill="#E8FFFB"/>
<path d="M225.938 331H210.896V346H225.938V331Z" fill="#E8FFFB"/>
<path d="M225.938 346H210.896V361H225.938V346Z" fill="#E8FFFB"/>
<path d="M316.187 346H301.146V361H316.187V346Z" fill="#E8FFFB"/>
<path d="M225.938 316H210.896V331H225.938V316Z" fill="#E8FFFB"/>
<path d="M346.27 391H331.229V406H346.27V391Z" fill="#1D0330"/>
<path d="M346.27 406H331.229V421H346.27V406Z" fill="#1D0330"/>
<path d="M346.27 61H331.229V76.0001H346.27V61Z" fill="#1D0330"/>
<path d="M346.27 76H331.229V91.0001H346.27V76Z" fill="#1D0330"/>
</g>
</svg>
