<svg width="482" height="482" viewBox="0 0 482 482" fill="none" xmlns="http://www.w3.org/2000/svg">
<g style="mix-blend-mode:multiply">
<path d="M270.5 376H255.5V391H270.5V376Z" fill="#1D0330"/>
<path d="M270.5 331H255.5V346H270.5V331Z" fill="#1D0330"/>
<path d="M270.5 91H255.5V106H270.5V91Z" fill="#1D0330"/>
<path d="M270.5 106H255.5V121H270.5V106Z" fill="#2EE800"/>
<path d="M270.5 121H255.5V136H270.5V121Z" fill="#2EE800"/>
<path d="M270.5 136H255.5V151H270.5V136Z" fill="#2EE800"/>
<path d="M270.5 151H255.5V166H270.5V151Z" fill="#2EE800"/>
<path d="M270.5 166H255.5V181H270.5V166Z" fill="#2EE800"/>
<path d="M270.5 181H255.5V196H270.5V181Z" fill="#2EE800"/>
<path d="M270.5 196H255.5V211H270.5V196Z" fill="#2EE800"/>
<path d="M270.5 211H255.5V226H270.5V211Z" fill="#37D211"/>
<path d="M330.5 151H315.5V166H330.5V151Z" fill="#2EE800"/>
<path d="M330.5 166H315.5V181H330.5V166Z" fill="#2EE800"/>
<path d="M330.5 181H315.5V196H330.5V181Z" fill="#2EE800"/>
<path d="M330.5 196H315.5V211H330.5V196Z" fill="#2EE800"/>
<path d="M210.5 151H195.5V166H210.5V151Z" fill="#2EE800"/>
<path d="M210.5 166H195.5V181H210.5V166Z" fill="#2EE800"/>
<path d="M210.5 181H195.5V196H210.5V181Z" fill="#2EE800"/>
<path d="M210.5 196H195.5V211H210.5V196Z" fill="#37D211"/>
<path d="M210.5 211H195.5V226H210.5V211Z" fill="#37D211"/>
<path d="M210.5 301H195.5V316H210.5V301Z" fill="#2EE800"/>
<path d="M210.5 316H195.5V331H210.5V316Z" fill="#2EE800"/>
<path d="M300.5 316H285.5V331H300.5V316Z" fill="#2EE800"/>
<path d="M300.5 301H285.5V316H300.5V301Z" fill="#2EE800"/>
<path d="M285.5 361H270.5V376H285.5V361Z" fill="#1D0330"/>
<path d="M210.5 361H195.5V376H210.5V361Z" fill="#1D0330"/>
<path d="M195.5 346H180.5V361H195.5V346Z" fill="#1D0330"/>
<path d="M300.5 346H285.5V361H300.5V346Z" fill="#1D0330"/>
<path d="M315.5 331H300.5V346H315.5V331Z" fill="#1D0330"/>
<path d="M180.5 331H165.5V346H180.5V331Z" fill="#1D0330"/>
<path d="M165.5 316H150.5V331H165.5V316Z" fill="#1D0330"/>
<path d="M330.5 316H315.5V331H330.5V316Z" fill="#1D0330"/>
<path d="M345.5 286H330.5V301H345.5V286Z" fill="#1D0330"/>
<path d="M150.5 286H135.5V301H150.5V286Z" fill="#1D0330"/>
<path d="M135.5 241H120.5V256H135.5V241Z" fill="#1D0330"/>
<path d="M360.5 241H345.5V256H360.5V241Z" fill="#1D0330"/>
<path d="M330.5 241H315.5V256H330.5V241Z" fill="#1D0330"/>
<path d="M330.5 226H315.5V241H330.5V226Z" fill="#1D0330"/>
<path d="M330.5 211H315.5V226H330.5V211Z" fill="#1D0330"/>
<path d="M315.5 211H300.5V226H315.5V211Z" fill="#1D0330"/>
<path d="M315.5 226H300.5V241H315.5V226Z" fill="#F3F3F3"/>
<path d="M315.5 241H300.5V256H315.5V241Z" fill="#1D0330"/>
<path d="M300.5 211H285.5V226H300.5V211Z" fill="#1D0330"/>
<path d="M285.5 211H270.5V226H285.5V211Z" fill="#37D211"/>
<path d="M270.5 226H255.5V241H270.5V226Z" fill="#2EE800"/>
<path d="M270.5 241H255.5V256H270.5V241Z" fill="#1D0330"/>
<path d="M270.5 256H255.5V271H270.5V256Z" fill="#1D0330"/>
<path d="M270.5 271H255.5V286H270.5V271Z" fill="#1D0330"/>
<path d="M270.5 286H255.5V301H270.5V286Z" fill="#1D0330"/>
<path d="M285.5 286H270.5V301H285.5V286Z" fill="#1D0330"/>
<path d="M285.5 271H270.5V286H285.5V271Z" fill="#1D0330"/>
<path d="M285.5 256H270.5V271H285.5V256Z" fill="#1D0330"/>
<path d="M285.5 241H270.5V256H285.5V241Z" fill="#1D0330"/>
<path d="M285.5 226H270.5V241H285.5V226Z" fill="#1D0330"/>
<path d="M300.5 286H285.5V301H300.5V286Z" fill="#1D0330"/>
<path d="M300.5 271H285.5V286H300.5V271Z" fill="#1D0330"/>
<path d="M300.5 256H285.5V271H300.5V256Z" fill="#1D0330"/>
<path d="M300.5 241H285.5V256H300.5V241Z" fill="#1D0330"/>
<path d="M300.5 226H285.5V241H300.5V226Z" fill="#1D0330"/>
<path d="M315.5 271H300.5V286H315.5V271Z" fill="#1D0330"/>
<path d="M315.5 256H300.5V271H315.5V256Z" fill="#1D0330"/>
<path d="M150.5 241H165.5V256H150.5V241Z" fill="#1D0330"/>
<path d="M150.5 226H165.5V241H150.5V226Z" fill="#1D0330"/>
<path d="M150.5 211H165.5V226H150.5V211Z" fill="#1D0330"/>
<path d="M165.5 211H180.5V226H165.5V211Z" fill="#1D0330"/>
<path d="M165.5 226H180.5V241H165.5V226Z" fill="#F3F3F3"/>
<path d="M165.5 241H180.5V256H165.5V241Z" fill="#1D0330"/>
<path d="M180.5 211H195.5V226H180.5V211Z" fill="#1D0330"/>
<path d="M210.5 226H225.5V241H210.5V226Z" fill="#2EE800"/>
<path d="M210.5 241H225.5V256H210.5V241Z" fill="#1D0330"/>
<path d="M210.5 256H225.5V271H210.5V256Z" fill="#1D0330"/>
<path d="M210.5 271H225.5V286H210.5V271Z" fill="#1D0330"/>
<path d="M210.5 286H225.5V301H210.5V286Z" fill="#1D0330"/>
<path d="M195.5 286H210.5V301H195.5V286Z" fill="#1D0330"/>
<path d="M195.5 271H210.5V286H195.5V271Z" fill="#1D0330"/>
<path d="M195.5 256H210.5V271H195.5V256Z" fill="#1D0330"/>
<path d="M195.5 241H210.5V256H195.5V241Z" fill="#1D0330"/>
<path d="M195.5 226H210.5V241H195.5V226Z" fill="#1D0330"/>
<path d="M180.5 286H195.5V301H180.5V286Z" fill="#1D0330"/>
<path d="M180.5 271H195.5V286H180.5V271Z" fill="#1D0330"/>
<path d="M180.5 256H195.5V271H180.5V256Z" fill="#1D0330"/>
<path d="M180.5 241H195.5V256H180.5V241Z" fill="#1D0330"/>
<path d="M180.5 226H195.5V241H180.5V226Z" fill="#1D0330"/>
<path d="M165.5 271H180.5V286H165.5V271Z" fill="#1D0330"/>
<path d="M165.5 256H180.5V271H165.5V256Z" fill="#1D0330"/>
<path d="M165.5 301H150.5V316H165.5V301Z" fill="#1D0330"/>
<path d="M330.5 301H315.5V316H330.5V301Z" fill="#1D0330"/>
<path d="M345.5 271H330.5V286H345.5V271Z" fill="#1D0330"/>
<path d="M150.5 271H135.5V286H150.5V271Z" fill="#1D0330"/>
<path d="M135.5 226H120.5V241H135.5V226Z" fill="#1D0330"/>
<path d="M360.5 226H345.5V241H360.5V226Z" fill="#1D0330"/>
<path d="M345.5 256H330.5V271H345.5V256Z" fill="#1D0330"/>
<path d="M150.5 256H135.5V271H150.5V256Z" fill="#1D0330"/>
<path d="M135.5 211H120.5V226H135.5V211Z" fill="#1D0330"/>
<path d="M360.5 211H345.5V226H360.5V211Z" fill="#1D0330"/>
<path d="M345.5 181H330.5V196H345.5V181Z" fill="#1D0330"/>
<path d="M150.5 181H135.5V196H150.5V181Z" fill="#1D0330"/>
<path d="M135.5 196H120.5V211H135.5V196Z" fill="#1D0330"/>
<path d="M360.5 196H345.5V211H360.5V196Z" fill="#1D0330"/>
<path d="M345.5 166H330.5V181H345.5V166Z" fill="#1D0330"/>
<path d="M345.5 151H330.5V166H345.5V151Z" fill="#1D0330"/>
<path d="M150.5 166H135.5V181H150.5V166Z" fill="#1D0330"/>
<path d="M150.5 151H135.5V166H150.5V151Z" fill="#1D0330"/>
<path d="M165.5 136H150.5V151H165.5V136Z" fill="#1D0330"/>
<path d="M330.5 136H315.5V151H330.5V136Z" fill="#1D0330"/>
<path d="M315.5 121H300.5V136H315.5V121Z" fill="#1D0330"/>
<path d="M300.5 106H285.5V121H300.5V106Z" fill="#1D0330"/>
<path d="M285.5 106H270.5V121H285.5V106Z" fill="#1D0330"/>
<path d="M180.5 121H165.5V136H180.5V121Z" fill="#1D0330"/>
<path d="M195.5 106H180.5V121H195.5V106Z" fill="#1D0330"/>
<path d="M210.5 106H195.5V121H210.5V106Z" fill="#1D0330"/>
<path d="M255.5 376H240.5V391H255.5V376Z" fill="#1D0330"/>
<path d="M255.5 331H240.5V346H255.5V331Z" fill="#1D0330"/>
<path d="M255.5 91H240.5V106H255.5V91Z" fill="#1D0330"/>
<path d="M255.5 106H240.5V121H255.5V106Z" fill="#2EE800"/>
<path d="M255.5 121H240.5V136H255.5V121Z" fill="#2EE800"/>
<path d="M255.5 226H240.5V241H255.5V226Z" fill="#2EE800"/>
<path d="M240.5 226H225.5V241H240.5V226Z" fill="#2EE800"/>
<path d="M255.5 136H240.5V151H255.5V136Z" fill="#2EE800"/>
<path d="M255.5 241H240.5V256H255.5V241Z" fill="#2EE800"/>
<path d="M240.5 241H225.5V256H240.5V241Z" fill="#2EE800"/>
<path d="M255.5 151H240.5V166H255.5V151Z" fill="#2EE800"/>
<path d="M255.5 256H240.5V271H255.5V256Z" fill="#2EE800"/>
<path d="M240.5 256H225.5V271H240.5V256Z" fill="#2EE800"/>
<path d="M255.5 166H240.5V181H255.5V166Z" fill="#2EE800"/>
<path d="M255.5 271H240.5V286H255.5V271Z" fill="#2EE800"/>
<path d="M240.5 271H225.5V286H240.5V271Z" fill="#2EE800"/>
<path d="M150.5 196H135.5V211H150.5V196Z" fill="#37D211"/>
<path d="M345.5 196H330.5V211H345.5V196Z" fill="#2EE800"/>
<path d="M255.5 181H240.5V196H255.5V181Z" fill="#2EE800"/>
<path d="M255.5 286H240.5V301H255.5V286Z" fill="#2EE800"/>
<path d="M240.5 286H225.5V301H240.5V286Z" fill="#2EE800"/>
<path d="M150.5 211H135.5V226H150.5V211Z" fill="#37D211"/>
<path d="M345.5 211H330.5V226H345.5V211Z" fill="#2EE800"/>
<path d="M255.5 196H240.5V211H255.5V196Z" fill="#2EE800"/>
<path d="M255.5 301H240.5V316H255.5V301Z" fill="#2EE800"/>
<path d="M240.5 301H225.5V316H240.5V301Z" fill="#2EE800"/>
<path d="M150.5 226H135.5V241H150.5V226Z" fill="#37D211"/>
<path d="M345.5 226H330.5V241H345.5V226Z" fill="#2EE800"/>
<path d="M255.5 211H240.5V226H255.5V211Z" fill="#2EE800"/>
<path d="M255.5 316H240.5V331H255.5V316Z" fill="#2EE800"/>
<path d="M255.5 346H240.5V361H255.5V346Z" fill="#2EE800"/>
<path d="M255.5 361H240.5V376H255.5V361Z" fill="#2EE800"/>
<path d="M240.5 316H225.5V331H240.5V316Z" fill="#2EE800"/>
<path d="M240.5 346H225.5V361H240.5V346Z" fill="#2EE800"/>
<path d="M240.5 361H225.5V376H240.5V361Z" fill="#2EE800"/>
<path d="M150.5 241H135.5V256H150.5V241Z" fill="#37D211"/>
<path d="M345.5 241H330.5V256H345.5V241Z" fill="#2EE800"/>
<path d="M315.5 151H300.5V166H315.5V151Z" fill="#2EE800"/>
<path d="M315.5 166H300.5V181H315.5V166Z" fill="#2EE800"/>
<path d="M315.5 181H300.5V196H315.5V181Z" fill="#2EE800"/>
<path d="M315.5 196H300.5V211H315.5V196Z" fill="#2EE800"/>
<path d="M195.5 151H180.5V166H195.5V151Z" fill="#37D211"/>
<path d="M195.5 166H180.5V181H195.5V166Z" fill="#37D211"/>
<path d="M195.5 181H180.5V196H195.5V181Z" fill="#37D211"/>
<path d="M195.5 196H180.5V211H195.5V196Z" fill="#37D211"/>
<path d="M195.5 301H180.5V316H195.5V301Z" fill="#2EE800"/>
<path d="M195.5 316H180.5V331H195.5V316Z" fill="#2EE800"/>
<path d="M285.5 316H270.5V331H285.5V316Z" fill="#2EE800"/>
<path d="M285.5 301H270.5V316H285.5V301Z" fill="#2EE800"/>
<path d="M240.5 376H225.5V391H240.5V376Z" fill="#1D0330"/>
<path d="M240.5 331H225.5V346H240.5V331Z" fill="#1D0330"/>
<path d="M240.5 91H225.5V106H240.5V91Z" fill="#1D0330"/>
<path d="M240.5 106H225.5V121H240.5V106Z" fill="#37D211"/>
<path d="M240.5 121H225.5V136H240.5V121Z" fill="#2EE800"/>
<path d="M210.5 121H195.5V136H210.5V121Z" fill="#37D211"/>
<path d="M300.5 121H285.5V136H300.5V121Z" fill="#2EE800"/>
<path d="M300.5 136H285.5V151H300.5V136Z" fill="#2EE800"/>
<path d="M210.5 136H195.5V151H210.5V136Z" fill="#37D211"/>
<path d="M240.5 136H225.5V151H240.5V136Z" fill="#2EE800"/>
<path d="M240.5 151H225.5V166H240.5V151Z" fill="#2EE800"/>
<path d="M240.5 166H225.5V181H240.5V166Z" fill="#2EE800"/>
<path d="M240.5 181H225.5V196H240.5V181Z" fill="#2EE800"/>
<path d="M240.5 196H225.5V211H240.5V196Z" fill="#2EE800"/>
<path d="M240.5 211H225.5V226H240.5V211Z" fill="#2EE800"/>
<path d="M300.5 151H285.5V166H300.5V151Z" fill="#2EE800"/>
<path d="M300.5 166H285.5V181H300.5V166Z" fill="#2EE800"/>
<path d="M300.5 181H285.5V196H300.5V181Z" fill="#2EE800"/>
<path d="M300.5 196H285.5V211H300.5V196Z" fill="#2EE800"/>
<path d="M180.5 151H165.5V166H180.5V151Z" fill="#37D211"/>
<path d="M180.5 166H165.5V181H180.5V166Z" fill="#37D211"/>
<path d="M180.5 181H165.5V196H180.5V181Z" fill="#37D211"/>
<path d="M180.5 196H165.5V211H180.5V196Z" fill="#37D211"/>
<path d="M180.5 301H165.5V316H180.5V301Z" fill="#37D211"/>
<path d="M180.5 316H165.5V331H180.5V316Z" fill="#37D211"/>
<path d="M270.5 316H255.5V331H270.5V316Z" fill="#2EE800"/>
<path d="M270.5 346H255.5V361H270.5V346Z" fill="#2EE800"/>
<path d="M285.5 346H270.5V361H285.5V346Z" fill="#2EE800"/>
<path d="M285.5 331H270.5V346H285.5V331Z" fill="#2EE800"/>
<path d="M300.5 331H285.5V346H300.5V331Z" fill="#2EE800"/>
<path d="M270.5 361H255.5V376H270.5V361Z" fill="#2EE800"/>
<path d="M270.5 301H255.5V316H270.5V301Z" fill="#2EE800"/>
<path d="M225.5 376H210.5V391H225.5V376Z" fill="#1D0330"/>
<path d="M225.5 331H210.5V346H225.5V331Z" fill="#1D0330"/>
<path d="M225.5 91H210.5V106H225.5V91Z" fill="#1D0330"/>
<path d="M225.5 106H210.5V121H225.5V106Z" fill="#37D211"/>
<path d="M225.5 121H210.5V136H225.5V121Z" fill="#37D211"/>
<path d="M195.5 121H180.5V136H195.5V121Z" fill="#37D211"/>
<path d="M285.5 121H270.5V136H285.5V121Z" fill="#2EE800"/>
<path d="M285.5 136H270.5V151H285.5V136Z" fill="#2EE800"/>
<path d="M195.5 136H180.5V151H195.5V136Z" fill="#37D211"/>
<path d="M180.5 136H165.5V151H180.5V136Z" fill="#37D211"/>
<path d="M315.5 136H300.5V151H315.5V136Z" fill="#2EE800"/>
<path d="M225.5 136H210.5V151H225.5V136Z" fill="#2EE800"/>
<path d="M225.5 151H210.5V166H225.5V151Z" fill="#2EE800"/>
<path d="M225.5 166H210.5V181H225.5V166Z" fill="#2EE800"/>
<path d="M225.5 181H210.5V196H225.5V181Z" fill="#2EE800"/>
<path d="M225.5 196H210.5V211H225.5V196Z" fill="#2EE800"/>
<path d="M225.5 301H210.5V316H225.5V301Z" fill="#2EE800"/>
<path d="M225.5 316H210.5V331H225.5V316Z" fill="#2EE800"/>
<path d="M225.5 346H210.5V361H225.5V346Z" fill="#2EE800"/>
<path d="M210.5 346H195.5V361H210.5V346Z" fill="#37D211"/>
<path d="M210.5 331H195.5V346H210.5V331Z" fill="#2EE800"/>
<path d="M195.5 331H180.5V346H195.5V331Z" fill="#37D211"/>
<path d="M225.5 361H210.5V376H225.5V361Z" fill="#37D211"/>
<path d="M315.5 316H300.5V331H315.5V316Z" fill="#2EE800"/>
<path d="M315.5 301H300.5V316H315.5V301Z" fill="#2EE800"/>
<path d="M315.5 286H300.5V301H315.5V286Z" fill="#2EE800"/>
<path d="M330.5 286H315.5V301H330.5V286Z" fill="#2EE800"/>
<path d="M165.5 286H150.5V301H165.5V286Z" fill="#37D211"/>
<path d="M180.5 286H165.5V301H180.5V286Z" fill="#37D211"/>
<path d="M330.5 271H315.5V286H330.5V271Z" fill="#2EE800"/>
<path d="M165.5 271H150.5V286H165.5V271Z" fill="#37D211"/>
<path d="M330.5 256H315.5V271H330.5V256Z" fill="#2EE800"/>
<path d="M165.5 256H150.5V271H165.5V256Z" fill="#37D211"/>
<path d="M225.5 211H210.5V226H225.5V211Z" fill="#2EE800"/>
<path d="M285.5 151H270.5V166H285.5V151Z" fill="#2EE800"/>
<path d="M285.5 166H270.5V181H285.5V166Z" fill="#2EE800"/>
<path d="M285.5 181H270.5V196H285.5V181Z" fill="#2EE800"/>
<path d="M285.5 196H270.5V211H285.5V196Z" fill="#37D211"/>
<path d="M165.5 151H150.5V166H165.5V151Z" fill="#37D211"/>
<path d="M165.5 166H150.5V181H165.5V166Z" fill="#37D211"/>
<path d="M165.5 181H150.5V196H165.5V181Z" fill="#37D211"/>
<path d="M165.5 196H150.5V211H165.5V196Z" fill="#37D211"/>
</g>
</svg>
