<svg width="482" height="482" viewBox="0 0 482 482" fill="none" xmlns="http://www.w3.org/2000/svg">
<g style="mix-blend-mode:multiply">
<path d="M210.759 391.793H195.732V406.82H210.759V391.793Z" fill="#1D0330"/>
<path d="M210.759 361.74H195.732V376.767H210.759V361.74Z" fill="#FF8000"/>
<path d="M210.759 376.767H195.732V391.794H210.759V376.767Z" fill="#E8FBFF"/>
<path d="M210.759 256.553H195.732V271.58H210.759V256.553Z" fill="#E8FBFF"/>
<path d="M180.705 256.553H165.678V271.58H180.705V256.553Z" fill="#E8FBFF"/>
<path d="M300.918 256.553H285.892V271.58H300.918V256.553Z" fill="#E8FBFF"/>
<path d="M210.759 241.526H195.732V256.553H210.759V241.526Z" fill="#E8FBFF"/>
<path d="M180.705 241.526H165.678V256.553H180.705V241.526Z" fill="#E8FBFF"/>
<path d="M300.918 241.526H285.892V256.553H300.918V241.526Z" fill="#E8FBFF"/>
<path d="M210.759 226.5H195.732V241.527H210.759V226.5Z" fill="#E8FBFF"/>
<path d="M210.759 211.473H195.732V226.5H210.759V211.473Z" fill="#E8FBFF"/>
<path d="M210.759 196.446H195.732V211.473H210.759V196.446Z" fill="#E8FBFF"/>
<path d="M210.759 181.419H195.732V196.446H210.759V181.419Z" fill="#E8FBFF"/>
<path d="M210.759 346.713H195.732V361.74H210.759V346.713Z" fill="#FF8000"/>
<path d="M195.732 346.713H180.705V361.74H195.732V346.713Z" fill="#FF8000"/>
<path d="M300.918 346.713H285.892V361.74H300.918V346.713Z" fill="#FF8000"/>
<path d="M210.759 331.687H195.732V346.714H210.759V331.687Z" fill="#FFDCDC"/>
<path d="M195.732 331.687H180.705V346.714H195.732V331.687Z" fill="#FF8000"/>
<path d="M300.918 331.687H285.892V346.714H300.918V331.687Z" fill="#FF8000"/>
<path d="M315.946 331.687H300.919V346.714H315.946V331.687Z" fill="#FF8000"/>
<path d="M315.946 346.713H300.919V361.74H315.946V346.713Z" fill="#E8FBFF"/>
<path d="M315.946 361.74H300.919V376.767H315.946V361.74Z" fill="#E8FBFF"/>
<path d="M300.918 361.74H285.892V376.767H300.918V361.74Z" fill="#E8FBFF"/>
<path d="M195.732 361.74H180.705V376.767H195.732V361.74Z" fill="#E8FBFF"/>
<path d="M180.705 361.74H165.678V376.767H180.705V361.74Z" fill="#E8FBFF"/>
<path d="M180.705 346.713H165.678V361.74H180.705V346.713Z" fill="#E8FBFF"/>
<path d="M180.705 331.687H165.678V346.714H180.705V331.687Z" fill="#FF8000"/>
<path d="M165.679 331.687H150.652V346.714H165.679V331.687Z" fill="#E8FBFF"/>
<path d="M330.973 331.687H315.946V346.714H330.973V331.687Z" fill="#E8FBFF"/>
<path d="M210.759 316.66H195.732V331.687H210.759V316.66Z" fill="#FF8000"/>
<path d="M195.732 316.66H180.705V331.687H195.732V316.66Z" fill="#FFDCDC"/>
<path d="M300.918 316.66H285.892V331.687H300.918V316.66Z" fill="#FF8000"/>
<path d="M315.946 316.66H300.919V331.687H315.946V316.66Z" fill="#FF8000"/>
<path d="M180.705 316.66H165.678V331.687H180.705V316.66Z" fill="#FF8000"/>
<path d="M165.679 316.66H150.652V331.687H165.679V316.66Z" fill="#E8FBFF"/>
<path d="M330.973 316.66H315.946V331.687H330.973V316.66Z" fill="#E8FBFF"/>
<path d="M210.759 301.633H195.732V316.66H210.759V301.633Z" fill="#FF8000"/>
<path d="M195.732 301.633H180.705V316.66H195.732V301.633Z" fill="#FFDCDC"/>
<path d="M300.918 301.633H285.892V316.66H300.918V301.633Z" fill="#FF8000"/>
<path d="M315.946 301.633H300.919V316.66H315.946V301.633Z" fill="#FF8000"/>
<path d="M180.705 301.633H165.678V316.66H180.705V301.633Z" fill="#FF8000"/>
<path d="M165.679 301.633H150.652V316.66H165.679V301.633Z" fill="#E8FBFF"/>
<path d="M330.973 301.633H315.946V316.66H330.973V301.633Z" fill="#E8FBFF"/>
<path d="M210.759 286.606H195.732V301.633H210.759V286.606Z" fill="#FF8000"/>
<path d="M195.732 286.606H180.705V301.633H195.732V286.606Z" fill="#FF8000"/>
<path d="M300.918 286.606H285.892V301.633H300.918V286.606Z" fill="#FF8000"/>
<path d="M315.946 286.606H300.919V301.633H315.946V286.606Z" fill="#FF8000"/>
<path d="M180.705 286.606H165.678V301.633H180.705V286.606Z" fill="#FF8000"/>
<path d="M165.679 286.606H150.652V301.633H165.679V286.606Z" fill="#E8FBFF"/>
<path d="M330.973 286.606H315.946V301.633H330.973V286.606Z" fill="#E8FBFF"/>
<path d="M210.759 271.58H195.732V286.607H210.759V271.58Z" fill="#FF8000"/>
<path d="M195.732 271.58H180.705V286.607H195.732V271.58Z" fill="#FF8000"/>
<path d="M300.918 271.58H285.892V286.607H300.918V271.58Z" fill="#FF8000"/>
<path d="M315.946 271.58H300.919V286.607H315.946V271.58Z" fill="#FF8000"/>
<path d="M180.705 271.58H165.678V286.607H180.705V271.58Z" fill="#FF8000"/>
<path d="M165.679 271.58H150.652V286.607H165.679V271.58Z" fill="#E8FBFF"/>
<path d="M330.973 271.58H315.946V286.607H330.973V271.58Z" fill="#E8FBFF"/>
<path d="M210.759 136.339H195.732V151.366H210.759V136.339Z" fill="#1D0330"/>
<path d="M195.732 376.767H180.705V391.794H195.732V376.767Z" fill="#1D0330"/>
<path d="M195.732 226.5H180.705V241.527H195.732V226.5Z" fill="#1D0330"/>
<path d="M315.946 376.767H300.919V391.794H315.946V376.767Z" fill="#1D0330"/>
<path d="M315.946 226.5H300.919V241.527H315.946V226.5Z" fill="#1D0330"/>
<path d="M180.705 376.767H165.678V391.794H180.705V376.767Z" fill="#1D0330"/>
<path d="M180.705 226.5H165.678V241.527H180.705V226.5Z" fill="#1D0330"/>
<path d="M300.918 376.767H285.892V391.794H300.918V376.767Z" fill="#1D0330"/>
<path d="M300.918 226.5H285.892V241.527H300.918V226.5Z" fill="#1D0330"/>
<path d="M165.679 361.74H150.652V376.767H165.679V361.74Z" fill="#1D0330"/>
<path d="M165.679 256.052H150.652V271.079H165.679V256.052Z" fill="#1D0330"/>
<path d="M330.973 361.74H315.946V376.767H330.973V361.74Z" fill="#1D0330"/>
<path d="M330.973 256.052H315.946V271.079H330.973V256.052Z" fill="#1D0330"/>
<path d="M345.999 331.687H330.973V346.714H345.999V331.687Z" fill="#1D0330"/>
<path d="M150.652 331.687H135.625V346.714H150.652V331.687Z" fill="#1D0330"/>
<path d="M210.759 211.473H195.732V226.5H210.759V211.473Z" fill="#1D0330"/>
<path d="M285.893 211.473H270.866V226.5H285.893V211.473Z" fill="#1D0330"/>
<path d="M345.999 301.633H330.973V316.66H345.999V301.633Z" fill="#1D0330"/>
<path d="M150.652 301.633H135.625V316.66H150.652V301.633Z" fill="#1D0330"/>
<path d="M210.759 181.419H195.732V196.446H210.759V181.419Z" fill="#1D0330"/>
<path d="M285.893 181.419H270.866V196.446H285.893V181.419Z" fill="#1D0330"/>
<path d="M165.679 346.713H150.652V361.74H165.679V346.713Z" fill="#1D0330"/>
<path d="M165.679 241.026H150.652V256.053H165.679V241.026Z" fill="#1D0330"/>
<path d="M330.973 346.713H315.946V361.74H330.973V346.713Z" fill="#1D0330"/>
<path d="M330.973 241.026H315.946V256.053H330.973V241.026Z" fill="#1D0330"/>
<path d="M345.999 316.66H330.973V331.687H345.999V316.66Z" fill="#1D0330"/>
<path d="M150.652 316.66H135.625V331.687H150.652V316.66Z" fill="#1D0330"/>
<path d="M210.759 196.446H195.732V211.473H210.759V196.446Z" fill="#1D0330"/>
<path d="M285.893 196.446H270.866V211.473H285.893V196.446Z" fill="#1D0330"/>
<path d="M345.999 286.606H330.973V301.633H345.999V286.606Z" fill="#1D0330"/>
<path d="M150.652 286.606H135.625V301.633H150.652V286.606Z" fill="#1D0330"/>
<path d="M210.759 166.393H195.732V181.42H210.759V166.393Z" fill="#1D0330"/>
<path d="M195.732 151.366H180.705V166.393H195.732V151.366Z" fill="#1D0330"/>
<path d="M300.918 151.366H285.892V166.393H300.918V151.366Z" fill="#1D0330"/>
<path d="M285.893 166.393H270.866V181.42H285.893V166.393Z" fill="#1D0330"/>
<path d="M345.999 271.58H330.973V286.607H345.999V271.58Z" fill="#1D0330"/>
<path d="M150.652 271.58H135.625V286.607H150.652V271.58Z" fill="#1D0330"/>
<path d="M225.786 391.793H210.759V406.82H225.786V391.793Z" fill="#1D0330"/>
<path d="M225.786 361.74H210.759V376.767H225.786V361.74Z" fill="#FF8000"/>
<path d="M225.786 376.767H210.759V391.794H225.786V376.767Z" fill="#E8FBFF"/>
<path d="M225.786 256.553H210.759V271.58H225.786V256.553Z" fill="#E8FBFF"/>
<path d="M195.732 256.553H180.705V271.58H195.732V256.553Z" fill="#E8FBFF"/>
<path d="M315.946 256.553H300.919V271.58H315.946V256.553Z" fill="#E8FBFF"/>
<path d="M225.786 241.526H210.759V256.553H225.786V241.526Z" fill="#E8FBFF"/>
<path d="M195.732 241.526H180.705V256.553H195.732V241.526Z" fill="#E8FBFF"/>
<path d="M315.946 241.526H300.919V256.553H315.946V241.526Z" fill="#E8FBFF"/>
<path d="M225.786 226.5H210.759V241.527H225.786V226.5Z" fill="#E8FBFF"/>
<path d="M225.786 211.473H210.759V226.5H225.786V211.473Z" fill="#E8FBFF"/>
<path d="M225.786 196.446H210.759V211.473H225.786V196.446Z" fill="#E8FBFF"/>
<path d="M225.786 181.419H210.759V196.446H225.786V181.419Z" fill="#E8FBFF"/>
<path d="M210.759 151.366H195.732V166.393H210.759V151.366Z" fill="#E8FBFF"/>
<path d="M285.893 151.366H270.866V166.393H285.893V151.366Z" fill="#E8FBFF"/>
<path d="M225.786 346.713H210.759V361.74H225.786V346.713Z" fill="#FF8000"/>
<path d="M225.786 331.687H210.759V346.714H225.786V331.687Z" fill="#FF8000"/>
<path d="M225.786 316.66H210.759V331.687H225.786V316.66Z" fill="#FF8000"/>
<path d="M225.786 301.633H210.759V316.66H225.786V301.633Z" fill="#FF8000"/>
<path d="M225.786 286.606H210.759V301.633H225.786V286.606Z" fill="#FF8000"/>
<path d="M225.786 271.58H210.759V286.607H225.786V271.58Z" fill="#FF8000"/>
<path d="M225.786 151.366H210.759V166.393H225.786V151.366Z" fill="#F63E00"/>
<path d="M225.786 166.393H210.759V181.42H225.786V166.393Z" fill="#F63E00"/>
<path d="M225.786 121.312H210.759V136.339H225.786V121.312Z" fill="#F63E00"/>
<path d="M225.786 136.339H210.759V151.366H225.786V136.339Z" fill="#1D0330"/>
<path d="M240.812 391.793H225.785V406.82H240.812V391.793Z" fill="#1D0330"/>
<path d="M240.812 361.74H225.785V376.767H240.812V361.74Z" fill="#FF8000"/>
<path d="M240.812 376.767H225.785V391.794H240.812V376.767Z" fill="#E8FBFF"/>
<path d="M240.812 256.553H225.785V271.58H240.812V256.553Z" fill="#E8FBFF"/>
<path d="M240.812 241.526H225.785V256.553H240.812V241.526Z" fill="#E8FBFF"/>
<path d="M240.812 226.5H225.785V241.527H240.812V226.5Z" fill="#E8FBFF"/>
<path d="M240.812 211.473H225.785V226.5H240.812V211.473Z" fill="#E8FBFF"/>
<path d="M240.812 196.446H225.785V211.473H240.812V196.446Z" fill="#E8FBFF"/>
<path d="M240.812 181.419H225.785V196.446H240.812V181.419Z" fill="#E8FBFF"/>
<path d="M240.812 346.713H225.785V361.74H240.812V346.713Z" fill="#FF8000"/>
<path d="M240.812 331.687H225.785V346.714H240.812V331.687Z" fill="#FF8000"/>
<path d="M240.812 316.66H225.785V331.687H240.812V316.66Z" fill="#FF8000"/>
<path d="M240.812 301.633H225.785V316.66H240.812V301.633Z" fill="#FF8000"/>
<path d="M240.812 286.606H225.785V301.633H240.812V286.606Z" fill="#FF8000"/>
<path d="M240.812 271.58H225.785V286.607H240.812V271.58Z" fill="#FF8000"/>
<path d="M240.812 151.366H225.785V166.393H240.812V151.366Z" fill="#F63E00"/>
<path d="M240.812 166.393H225.785V181.42H240.812V166.393Z" fill="#F63E00"/>
<path d="M240.812 121.312H225.785V136.339H240.812V121.312Z" fill="#F63E00"/>
<path d="M240.812 136.339H225.785V151.366H240.812V136.339Z" fill="#1D0330"/>
<path d="M255.838 391.793H240.812V406.82H255.838V391.793Z" fill="#1D0330"/>
<path d="M255.838 361.74H240.812V376.767H255.838V361.74Z" fill="#FF8000"/>
<path d="M255.838 376.767H240.812V391.794H255.838V376.767Z" fill="#E8FBFF"/>
<path d="M255.838 256.553H240.812V271.58H255.838V256.553Z" fill="#E8FBFF"/>
<path d="M255.838 241.526H240.812V256.553H255.838V241.526Z" fill="#E8FBFF"/>
<path d="M255.838 226.5H240.812V241.527H255.838V226.5Z" fill="#E8FBFF"/>
<path d="M255.838 211.473H240.812V226.5H255.838V211.473Z" fill="#E8FBFF"/>
<path d="M255.838 196.446H240.812V211.473H255.838V196.446Z" fill="#E8FBFF"/>
<path d="M255.838 181.419H240.812V196.446H255.838V181.419Z" fill="#E8FBFF"/>
<path d="M255.838 346.713H240.812V361.74H255.838V346.713Z" fill="#FF8000"/>
<path d="M255.838 331.687H240.812V346.714H255.838V331.687Z" fill="#FF8000"/>
<path d="M255.838 316.66H240.812V331.687H255.838V316.66Z" fill="#FF8000"/>
<path d="M255.838 301.633H240.812V316.66H255.838V301.633Z" fill="#FF8000"/>
<path d="M255.838 286.606H240.812V301.633H255.838V286.606Z" fill="#FF8000"/>
<path d="M255.838 271.58H240.812V286.607H255.838V271.58Z" fill="#FF8000"/>
<path d="M255.838 151.366H240.812V166.393H255.838V151.366Z" fill="#F63E00"/>
<path d="M255.838 166.393H240.812V181.42H255.838V166.393Z" fill="#F63E00"/>
<path d="M255.838 121.312H240.812V136.339H255.838V121.312Z" fill="#F63E00"/>
<path d="M255.838 136.339H240.812V151.366H255.838V136.339Z" fill="#1D0330"/>
<path d="M270.866 391.793H255.839V406.82H270.866V391.793Z" fill="#1D0330"/>
<path d="M270.866 361.74H255.839V376.767H270.866V361.74Z" fill="#FF8000"/>
<path d="M270.866 376.767H255.839V391.794H270.866V376.767Z" fill="#E8FBFF"/>
<path d="M270.866 256.553H255.839V271.58H270.866V256.553Z" fill="#E8FBFF"/>
<path d="M270.866 241.526H255.839V256.553H270.866V241.526Z" fill="#E8FBFF"/>
<path d="M270.866 226.5H255.839V241.527H270.866V226.5Z" fill="#E8FBFF"/>
<path d="M270.866 211.473H255.839V226.5H270.866V211.473Z" fill="#E8FBFF"/>
<path d="M270.866 196.446H255.839V211.473H270.866V196.446Z" fill="#E8FBFF"/>
<path d="M270.866 181.419H255.839V196.446H270.866V181.419Z" fill="#E8FBFF"/>
<path d="M270.866 346.713H255.839V361.74H270.866V346.713Z" fill="#FF8000"/>
<path d="M270.866 331.687H255.839V346.714H270.866V331.687Z" fill="#FF8000"/>
<path d="M270.866 316.66H255.839V331.687H270.866V316.66Z" fill="#FF8000"/>
<path d="M270.866 301.633H255.839V316.66H270.866V301.633Z" fill="#FF8000"/>
<path d="M270.866 286.606H255.839V301.633H270.866V286.606Z" fill="#FF8000"/>
<path d="M270.866 271.58H255.839V286.607H270.866V271.58Z" fill="#FF8000"/>
<path d="M270.866 151.366H255.839V166.393H270.866V151.366Z" fill="#F63E00"/>
<path d="M270.866 166.393H255.839V181.42H270.866V166.393Z" fill="#F63E00"/>
<path d="M270.866 121.312H255.839V136.339H270.866V121.312Z" fill="#F63E00"/>
<path d="M270.866 136.339H255.839V151.366H270.866V136.339Z" fill="#1D0330"/>
<path d="M285.893 391.793H270.866V406.82H285.893V391.793Z" fill="#1D0330"/>
<path d="M285.893 361.74H270.866V376.767H285.893V361.74Z" fill="#FF8000"/>
<path d="M285.893 376.767H270.866V391.794H285.893V376.767Z" fill="#E8FBFF"/>
<path d="M285.893 256.553H270.866V271.58H285.893V256.553Z" fill="#E8FBFF"/>
<path d="M285.893 241.526H270.866V256.553H285.893V241.526Z" fill="#E8FBFF"/>
<path d="M285.893 226.5H270.866V241.527H285.893V226.5Z" fill="#E8FBFF"/>
<path d="M285.893 346.713H270.866V361.74H285.893V346.713Z" fill="#FF8000"/>
<path d="M285.893 331.687H270.866V346.714H285.893V331.687Z" fill="#FF8000"/>
<path d="M285.893 316.66H270.866V331.687H285.893V316.66Z" fill="#FF8000"/>
<path d="M285.893 301.633H270.866V316.66H285.893V301.633Z" fill="#FF8000"/>
<path d="M285.893 286.606H270.866V301.633H285.893V286.606Z" fill="#FF8000"/>
<path d="M285.893 271.58H270.866V286.607H285.893V271.58Z" fill="#FF8000"/>
<path d="M285.893 136.339H270.866V151.366H285.893V136.339Z" fill="#1D0330"/>
<path d="M300.918 106.286H285.892V121.313H300.918V106.286Z" fill="#FF8000"/>
<path d="M195.732 91.2588H180.705V106.286H195.732V91.2588Z" fill="#FF8000"/>
<path d="M240.812 76.2319H225.785V91.2587H240.812V76.2319Z" fill="#FF8000"/>
<path d="M285.893 61.2056H270.866V76.2324H285.893V61.2056Z" fill="#FF8000"/>
<path d="M210.759 46.1787H195.732V61.2055H210.759V46.1787Z" fill="#FF8000"/>
</g>
</svg>
