<svg width="482" height="482" viewBox="0 0 482 482" fill="none" xmlns="http://www.w3.org/2000/svg">
<path d="M135.269 345.875V135.524H165.569V195.625H180.845H255.719V286.025H271.245V75.6748H301.295V286.025H346.621V271.501H361.646V240.95H376.17V225.925H405.97V256.225H391.195V286.025H377.172V316.576H361.646V345.875H346.621V361.401H331.345V376.926H316.32V391.701H286.02V407.477H195.118V391.701H165.569V375.424H149.793V345.875H135.269Z" fill="#FF8000" stroke="black"/>
<path d="M135.524 135.525H121V346.376H135.524V135.525Z" fill="#1D0330"/>
<path d="M150.544 345.875H135.519V376.426H150.544V345.875Z" fill="#1D0330"/>
<path d="M165.568 375.428H150.543V389.952H165.568V375.428Z" fill="#1D0330"/>
<path d="M330.85 376.426H315.825V391.451H330.85V376.426Z" fill="#1D0330"/>
<path d="M345.875 360.9H330.85V376.426H345.875V360.9Z" fill="#1D0330"/>
<path d="M361.399 345.875H346.374V361.401H361.399V345.875Z" fill="#1D0330"/>
<path d="M375.925 316.326H360.9V345.875H375.925V316.326Z" fill="#1D0330"/>
<path d="M390.95 286.275H375.925V315.824H390.95V286.275Z" fill="#1D0330"/>
<path d="M405.975 256.226H390.95V285.775H405.975V256.226Z" fill="#1D0330"/>
<path d="M421 226.677H405.975V256.226H421V226.677Z" fill="#1D0330"/>
<path d="M376.424 211.151V226.176H405.973V211.151H376.424Z" fill="#1D0330"/>
<path d="M270.75 60.9003V75.9253H301.301V60.9003H270.75Z" fill="#1D0330"/>
<path d="M361.407 226.175V241.2H375.931V226.175H361.407Z" fill="#1D0330"/>
<path d="M345.875 241.201V271.251H361.401V241.201H345.875Z" fill="#1D0330"/>
<path d="M346.877 271.251H315.825V285.775H346.877V271.251Z" fill="#1D0330"/>
<path d="M255.729 285.775H224.678V300.299H255.729V285.775Z" fill="#1D0330"/>
<path d="M210.647 285.775H179.596V300.299H210.647V285.775Z" fill="#1D0330"/>
<path d="M255.723 180.6H226.174V196.126H255.723V180.6Z" fill="#1D0330"/>
<path d="M210.647 180.6H179.596V196.126H210.647V180.6Z" fill="#1D0330"/>
<path d="M166.57 121H135.519V135.524H166.57V121Z" fill="#1D0330"/>
<path d="M315.825 285.774V75.9253H301.301V285.774H315.825Z" fill="#1D0330"/>
<path d="M271.25 285.774V75.9253H255.724V285.774H271.25Z" fill="#1D0330"/>
<path d="M226.174 285.774V196.125H210.648V285.774H226.174Z" fill="#1D0330"/>
<path d="M181.1 285.774V135.023H165.574V285.774H181.1Z" fill="#1D0330"/>
<path d="M195.626 391.451H165.576V405.975H195.626V391.451Z" fill="#1D0330"/>
<path d="M315.825 391.451H285.775V405.975H315.825V391.451Z" fill="#1D0330"/>
<path d="M285.776 406.476H195.626V421H285.776V406.476Z" fill="#1D0330"/>
</svg>
