<svg width="58" height="65" viewBox="0 0 58 65" fill="none" xmlns="http://www.w3.org/2000/svg">
<path d="M0 0H9.02977V28.5943H0V0Z" fill="#FF5F00"/>
<path d="M57.1895 64.7134H48.1597V36.1192H57.1895V64.7134Z" fill="#FF5F00"/>
<path d="M0.0195312 36.1192V64.7135H9.0493V42.139L21.5405 37.4737V28.7449L0.0195312 36.1192Z" fill="#FF5F00"/>
<path d="M48.1777 22.5746V0.00012207H57.3579V28.5944L34.332 37.8697V28.5944L48.1777 22.5746Z" fill="#FF5F00"/>
<path d="M21.9912 29.0459L28.4868 26.8346C28.8573 26.7085 29.2624 26.7316 29.6161 26.8992L34.7834 29.3469M21.9912 29.0459L28.1616 32.2063M21.9912 29.0459V37.1727L28.1616 40.0321M34.7834 29.3469L28.1616 32.2063M34.7834 29.3469C34.7834 32.3443 34.7834 34.1753 34.7834 37.1727L28.1616 40.0321M28.1616 32.2063V40.0321" stroke="#FF5F00" stroke-width="0.902977"/>
</svg>
