<svg width="351" height="43" viewBox="0 0 351 43" fill="none" xmlns="http://www.w3.org/2000/svg">
<path d="M315.441 6.10352e-05H306.862L320.055 15.9603L324.019 21.0695L306.862 42.139H315.591L332.597 21.0695L328.555 15.9603L315.441 6.10352e-05Z" fill="#1D1D1D"/>
<path d="M350.055 6.10352e-05H341.326L332.598 10.6853L336.962 15.9527L350.055 6.10352e-05Z" fill="#1D1D1D"/>
<path d="M349.905 42.139L341.176 42.139L332.598 31.7548L336.962 26.3369L349.905 42.139Z" fill="#1D1D1D"/>
<path d="M264.874 6.10352e-05H258.252V34.0122L269.088 42.139H289.555L300.391 34.0122V6.10352e-05H293.769V29.9349C293.769 30.4164 293.539 30.8688 293.149 31.152L287.543 35.2293C287.286 35.4164 286.976 35.5172 286.658 35.5172H271.985C271.667 35.5172 271.357 35.4164 271.1 35.2293L265.494 31.152C265.104 30.8688 264.874 30.4164 264.874 29.9349V6.10352e-05Z" fill="#1D1D1D"/>
<rect x="244.406" y="6.10352e-05" width="6.62183" height="42.1389" fill="#1D1D1D"/>
<path d="M195.043 0.000183105H228.002V6.62202H201.665V42.2896H195.043V0.000183105Z" fill="#1D1D1D"/>
<path d="M233.269 24.0796L237.182 18.1404V6.62202V0.000183105H195.043V6.62202H230.56V15.8023L225.594 24.0796H233.269Z" fill="#1D1D1D"/>
<path d="M221.078 17.7586H201.664V24.3804H217.466L229.205 42.139H237.163L221.078 17.7586Z" fill="#1D1D1D"/>
<path d="M182.401 24.3804V17.7585H162.235L153.205 27.9923H162.084L165.245 24.3804H182.401Z" fill="#1D1D1D"/>
<path d="M158.322 0H188.421V6.62183H161.031L152.904 15.9526V35.5171H188.421V42.1389H146.282V12.0397L158.322 0Z" fill="#1D1D1D"/>
<rect x="97.5234" y="17.7585" width="6.62183" height="24.3804" fill="#1D1D1D"/>
<path d="M139.662 0H97.5234V6.62183H133.041V17.7586H111.15L104.534 24.3804H133.643L139.662 18.0595V0Z" fill="#1D1D1D"/>
<path d="M55.3826 10.8357L55.3826 0H48.7607L48.7607 14.8991L66.5754 24.2299L66.5193 42.1389H73.1411V24.2299L90.8997 14.7486V0H84.2779V10.8357L69.8302 18.4786L55.3826 10.8357Z" fill="#1D1D1D"/>
<rect width="6.62183" height="42.1389" fill="#1D1D1D"/>
<rect x="35.5166" width="6.62183" height="42.1389" fill="#1D1D1D"/>
<rect x="6.62305" y="17.7585" width="28.8953" height="6.62183" fill="#1D1D1D"/>
</svg>
