<svg width="43" height="43" viewBox="0 0 43 43" fill="none" xmlns="http://www.w3.org/2000/svg">
<g clip-path="url(#clip0_2329_1300)">
<mask id="mask0_2329_1300" style="mask-type:luminance" maskUnits="userSpaceOnUse" x="16" y="12" width="10" height="19">
<path d="M25.8171 12.8635H16.3164V30.1374H25.8171V12.8635Z" fill="white"/>
</mask>
<g mask="url(#mask0_2329_1300)">
<path d="M22.0245 29.7089C21.0115 29.7089 19.9984 29.7089 18.9854 29.7089C18.9854 29.6372 18.9752 29.5655 18.9752 29.4938C18.9752 27.1074 18.9752 24.7211 18.9752 22.3347C18.9752 22.263 18.9752 22.2016 18.9752 22.1197C18.1157 22.1197 17.2766 22.1197 16.4375 22.1197C16.4375 21.1262 16.4375 20.1533 16.4375 19.1598C17.2868 19.1598 18.1259 19.1598 18.9752 19.1598C18.9752 19.0779 18.9752 19.0164 18.9752 18.9652C18.9752 18.3405 18.9649 17.7157 18.9752 17.1012C18.9854 16.7018 19.0059 16.3023 19.0878 15.9131C19.3845 14.3871 20.4896 13.3629 22.0245 13.1478C22.7715 13.0454 23.5082 13.1068 24.2552 13.1376C24.5111 13.1478 24.7771 13.1888 25.0329 13.2195C25.0329 14.1003 25.0329 14.9708 25.0329 15.8516C24.3781 15.8619 23.7231 15.8516 23.0785 15.8824C22.5464 15.9029 22.2189 16.1897 22.0859 16.6812C22.0552 16.8041 22.0348 16.9373 22.0348 17.0602C22.0245 17.7259 22.0245 18.3917 22.0245 19.0573C22.0245 19.0881 22.0348 19.129 22.045 19.1802C23.0069 19.1802 23.9688 19.1802 24.9408 19.1802C24.818 20.1738 24.685 21.1467 24.5622 22.1299C23.7129 22.1299 22.8738 22.1299 22.0348 22.1299C22.0348 22.2118 22.0348 22.263 22.0348 22.3245C22.0348 24.7211 22.0348 27.128 22.0348 29.5246C22.0143 29.586 22.0245 29.6475 22.0245 29.7089Z" fill="white"/>
</g>
</g>
<rect x="0.38565" y="0.38565" width="42.2287" height="42.2287" rx="21.1143" stroke="white" stroke-width="0.7713"/>
<defs>
<clipPath id="clip0_2329_1300">
<rect width="43" height="43" rx="21.5" fill="white"/>
</clipPath>
</defs>
</svg>
