<svg width="43" height="43" viewBox="0 0 43 43" fill="none" xmlns="http://www.w3.org/2000/svg">
<rect x="0.38565" y="0.38565" width="42.2287" height="42.2287" rx="21.1143" stroke="white" stroke-width="0.7713"/>
<mask id="mask0_2329_1323" style="mask-type:luminance" maskUnits="userSpaceOnUse" x="12" y="11" width="20" height="21">
<path d="M31.0013 11.1355H12V31.0005H31.0013V11.1355Z" fill="white"/>
</mask>
<g mask="url(#mask0_2329_1323)">
<path d="M24.4648 21.07C24.4648 21.6559 24.2911 22.2286 23.9656 22.7157C23.6401 23.2029 23.1775 23.5825 22.6363 23.8067C22.095 24.0309 21.4995 24.0895 20.9249 23.9753C20.3502 23.8609 19.8224 23.5788 19.4082 23.1646C18.9939 22.7503 18.7118 22.2225 18.5975 21.6479C18.4832 21.0733 18.5419 20.4777 18.766 19.9364C18.9903 19.3953 19.3699 18.9327 19.8571 18.6071C20.3442 18.2817 20.9168 18.1079 21.5028 18.1079C22.288 18.1089 23.0409 18.4212 23.5963 18.9765C24.1515 19.5318 24.4639 20.2847 24.4648 21.07ZM30.7593 16.9971V25.143C30.7578 26.5173 30.2111 27.8349 29.2393 28.8067C28.2676 29.7784 26.9499 30.3251 25.5756 30.3266H17.4298C16.0555 30.3251 14.7379 29.7784 13.7661 28.8067C12.7943 27.8349 12.2476 26.5173 12.2461 25.143V16.9971C12.2476 15.6228 12.7943 14.3052 13.7661 13.3334C14.7379 12.3617 16.0555 11.815 17.4298 11.8135H25.5756C26.9499 11.815 28.2676 12.3617 29.2393 13.3334C30.2111 14.3052 30.7578 15.6228 30.7593 16.9971ZM25.9459 21.07C25.9459 20.1912 25.6853 19.3322 25.197 18.6015C24.7089 17.8708 24.0149 17.3014 23.203 16.9651C22.3912 16.6288 21.4977 16.5408 20.6359 16.7123C19.774 16.8837 18.9823 17.3068 18.3609 17.9283C17.7395 18.5496 17.3163 19.3414 17.1449 20.2032C16.9734 21.0651 17.0615 21.9584 17.3978 22.7704C17.734 23.5823 18.3035 24.2762 19.0342 24.7644C19.7649 25.2526 20.6239 25.5132 21.5028 25.5132C22.6807 25.5119 23.81 25.0433 24.6431 24.2104C25.476 23.3774 25.9446 22.248 25.9459 21.07ZM27.4269 16.2566C27.4269 16.0369 27.3618 15.8221 27.2398 15.6395C27.1176 15.4568 26.9442 15.3145 26.7412 15.2303C26.5383 15.1463 26.3149 15.1243 26.0994 15.1671C25.8839 15.21 25.6861 15.3158 25.5307 15.4711C25.3754 15.6265 25.2696 15.8244 25.2267 16.0399C25.1838 16.2554 25.2058 16.4787 25.2899 16.6817C25.374 16.8847 25.5163 17.0581 25.699 17.1802C25.8817 17.3023 26.0965 17.3674 26.3161 17.3674C26.6107 17.3674 26.8933 17.2504 27.1016 17.042C27.3099 16.8337 27.4269 16.5512 27.4269 16.2566Z" fill="white"/>
</g>
</svg>
