<svg width="43" height="43" viewBox="0 0 43 43" fill="none" xmlns="http://www.w3.org/2000/svg">
<rect x="0.38565" y="0.38565" width="42.2287" height="42.2287" rx="21.1143" stroke="white" stroke-width="0.7713"/>
<mask id="mask0_2329_1314" style="mask-type:luminance" maskUnits="userSpaceOnUse" x="12" y="13" width="18" height="17">
<path d="M29.2735 13.7268H12.8633V29.2733H29.2735V13.7268Z" fill="white"/>
</mask>
<g mask="url(#mask0_2329_1314)">
<path d="M19.0215 29.0028C19.0215 25.7038 19.0215 22.4147 19.0215 19.1157C19.0215 19.0376 19.0215 18.9595 19.0215 18.8619C20.0268 18.8619 21.0223 18.8619 22.0471 18.8619C22.0471 19.3109 22.0471 19.7599 22.0471 20.2186C22.2618 19.9649 22.4472 19.7111 22.6718 19.4964C23.2281 18.9693 23.9015 18.696 24.653 18.6277C25.307 18.5692 25.9609 18.6179 26.5953 18.8131C27.6299 19.145 28.2741 19.8673 28.5474 20.8921C28.684 21.4191 28.7328 21.9755 28.8206 22.5123C28.8401 22.6196 28.8499 22.727 28.8597 22.8441C28.8597 24.884 28.8597 26.9336 28.8597 28.9735C27.8154 28.9735 26.7612 28.9735 25.6974 28.9735C25.6974 28.8857 25.6974 28.8076 25.6974 28.7393C25.6974 27.0605 25.7072 25.3915 25.6877 23.7127C25.6877 23.3028 25.6291 22.8831 25.5413 22.483C25.4241 21.9364 25.1021 21.546 24.5262 21.4191C24.2919 21.3703 24.0479 21.3605 23.8039 21.38C23.0134 21.4386 22.496 21.8584 22.3204 22.6294C22.2228 23.0686 22.174 23.537 22.174 23.9861C22.1545 25.6648 22.1642 27.3338 22.1642 29.0125C21.1297 29.0028 20.0756 29.0028 19.0215 29.0028Z" fill="white"/>
<path d="M13.8965 29.0016C13.8965 26.8642 13.8965 24.7365 13.8965 22.599C13.8965 21.4277 13.8965 20.2468 13.8965 19.0756C13.8965 19.0072 13.8965 18.9389 13.8965 18.8608C14.9505 18.8608 15.9852 18.8608 17.049 18.8608C17.049 18.9389 17.049 19.017 17.049 19.0951C17.049 22.3648 17.049 25.6441 17.049 28.9137C17.049 28.943 17.049 28.9723 17.049 29.0016C16.0047 29.0016 14.9505 29.0016 13.8965 29.0016Z" fill="white"/>
<path d="M17.2913 15.6306C17.2718 16.6652 16.4323 17.4753 15.4173 17.446C14.4413 17.4265 13.6214 16.5676 13.641 15.572C13.6605 14.5765 14.5096 13.7665 15.5052 13.786C16.5104 13.8153 17.3108 14.6351 17.2913 15.6306Z" fill="white"/>
</g>
</svg>
