<svg width="43" height="43" viewBox="0 0 43 43" fill="none" xmlns="http://www.w3.org/2000/svg">
<g clip-path="url(#clip0_2329_1307)">
<mask id="mask0_2329_1307" style="mask-type:luminance" maskUnits="userSpaceOnUse" x="13" y="13" width="16" height="17">
<path d="M28.4094 13.7268H13.7266V29.2733H28.4094V13.7268Z" fill="white"/>
</mask>
<g mask="url(#mask0_2329_1307)">
<path d="M13.7772 28.7093C14.1125 28.3068 14.4479 27.914 14.7929 27.5115C16.2781 25.7867 17.7633 24.0524 19.2485 22.3276C19.2773 22.2892 19.306 22.251 19.3444 22.2126C17.4854 19.5105 15.6361 16.8083 13.7676 14.087C13.8251 14.087 13.8539 14.0774 13.8921 14.0774C15.224 14.0774 16.5655 14.0774 17.8974 14.0774C17.9933 14.0774 18.0411 14.1157 18.0891 14.1828C19.2677 15.8981 20.4367 17.6036 21.6153 19.3188C21.6441 19.3572 21.6728 19.4051 21.7112 19.4529C21.9507 19.1751 22.1903 18.8972 22.4202 18.6289C23.6851 17.1629 24.9498 15.6968 26.2051 14.2212C26.2913 14.1157 26.3871 14.0774 26.5213 14.0774C26.8663 14.087 27.2112 14.0774 27.5945 14.0774C25.8122 16.1567 24.0395 18.2073 22.2765 20.2674C22.3052 20.3153 22.334 20.3537 22.3627 20.392C24.2312 23.1133 26.0997 25.8442 27.9778 28.5655C28.0066 28.6038 28.0257 28.6517 28.0544 28.6997C26.6363 28.6997 25.2181 28.6997 23.8 28.6997C23.7808 28.6709 23.7712 28.6422 23.7521 28.6134C22.4873 26.7928 21.232 24.9626 19.9768 23.1325C19.9576 23.1037 19.9288 23.075 19.9001 23.0367C19.8522 23.0846 19.8139 23.1325 19.7851 23.1708C18.7694 24.3494 17.7537 25.528 16.7476 26.7066C16.1823 27.3678 15.6073 28.0385 15.042 28.6997C14.6108 28.7093 14.1892 28.7093 13.7772 28.7093ZM15.4828 15.0261C15.5211 15.0836 15.5402 15.1219 15.5594 15.1506C18.482 19.3284 21.3949 23.5062 24.3174 27.6936C24.3654 27.7702 24.4228 27.7989 24.5187 27.7989C25.0744 27.7989 25.6302 27.7989 26.186 27.7989C26.2242 27.7989 26.2626 27.7893 26.3201 27.7893C26.2722 27.7223 26.2434 27.6744 26.2146 27.636C24.0779 24.5698 21.9315 21.5035 19.7947 18.4468C19.0281 17.3545 18.2616 16.2525 17.495 15.1602C17.4567 15.1123 17.3896 15.0452 17.3417 15.0452C16.7284 15.0261 16.1248 15.0261 15.4828 15.0261Z" fill="white"/>
</g>
</g>
<rect x="0.38565" y="0.38565" width="42.2287" height="42.2287" rx="21.1143" stroke="white" stroke-width="0.7713"/>
<defs>
<clipPath id="clip0_2329_1307">
<rect width="43" height="43" rx="21.5" fill="white"/>
</clipPath>
</defs>
</svg>
